999
DXF file: laserschnittdaten_3.dxf
999
Pro/ENGINEER 2024014 by Parametric Technology Corporation
  0
SECTION
  2
HEADER
  9
$ACADVER
  1
AC1032
  9
$DWGCODEPAGE
  3
ANSI_1252
  9
$EXTMAX
 10
210.0
 20
297.0
 30
0.0
  9
$EXTMIN
 10
0.0
 20
0.0
 30
0.0
  9
$LIMMIN
 10
0.0
 20
0.0
  9
$LIMMAX
 10
210.0
 20
297.0
  9
$VIEWCTR
 10
105.0
 20
148.5
  9
$VIEWSIZE
 40
297.0
  9
$CLAYER
  8
0
  9
$LTSCALE
 40
19.36
  9
$CELTYPE
  6
BYLAYER
  9
$DIMSCALE
 40
1.0
  9
$DIMASZ
 40
3.5
  9
$DIMEXO
 40
0.0
  9
$DIMDLI
 40
13.376
  9
$DIMEXE
 40
1.0
  9
$DIMCEN
 40
3.168
  9
$DIMLFAC
 40
1.0
  9
$DIMBLK
  1
_FILLED
  9
$DIMALT
 70
0
  9
$DIMALTF
 40
0.0393700787
  9
$DIMTXT
 40
3.5
  9
$DIMTOL
 70
1
  9
$DIMLIM
 70
0
  9
$DIMTFAC
 40
1.0
  9
$DIMTP
 40
0.01
  9
$DIMTM
 40
0.01
  9
$DIMGAP
 40
0.625
  9
$DIMDSEP
 70
46
  9
$AUNITS
 70
0
  9
$PDMODE
 70
3
  9
$PDSIZE
 40
1.5
  9
$HANDSEED
  5
462
  9
$TILEMODE
 70
1
  9
$MEASUREMENT
 70
1
  9
$INSUNITS
 70
4
  0
ENDSEC
  0
SECTION
  2
CLASSES
  0
CLASS
  1
ACDBDICTIONARYWDFLT
  2
AcDbDictionaryWithDefault
  3
AutoCAD 2000
 90
0
 91
1
280
0
281
0
  0
CLASS
  1
ACDBPLACEHOLDER
  2
AcDbPlaceHolder
  3
AutoCAD 2000
 90
0
 91
1
280
0
281
0
  0
CLASS
  1
LAYOUT
  2
AcDbLayout
  3
AutoCAD 2000
 90
0
 91
0
280
0
281
0
  0
ENDSEC
  0
SECTION
  2
TABLES
  0
TABLE
  2
VPORT
  5
8
100
AcDbSymbolTable
 70
2
  0
VPORT
  5
1F4
100
AcDbSymbolTableRecord
100
AcDbViewportTableRecord
  2
*ACTIVE
 70
0
 10
0.0
 20
0.0
 11
1.0
 21
1.0
 12
105.0
 22
148.5
 13
0.0
 23
0.0
 14
1.0
 24
1.0
 15
0.0
 25
0.0
 16
0.0
 26
0.0
 36
1.0
 17
0.0
 27
0.0
 37
0.0
 40
297.0
 41
0.7070707071
 42
50.0
 43
0.0
 44
0.0
 50
0.0
 51
0.0
 71
0
 72
100
 73
1
 74
1
 75
0
 76
0
 77
0
 78
0
  0
ENDTAB
  0
TABLE
  2
LTYPE
  5
5
100
AcDbSymbolTable
 70
6
  0
LTYPE
  5
14
100
AcDbSymbolTableRecord
100
AcDbLinetypeTableRecord
  2
BYBLOCK
 70
0
  3

 72
65
 73
0
 40
0.0
  0
LTYPE
  5
15
100
AcDbSymbolTableRecord
100
AcDbLinetypeTableRecord
  2
BYLAYER
 70
0
  3

 72
65
 73
0
 40
0.0
  0
LTYPE
  5
16
100
AcDbSymbolTableRecord
100
AcDbLinetypeTableRecord
  2
CONTINUOUS
 70
64
  3
Solid line
 72
65
 73
0
 40
0.0
  0
LTYPE
  5
1F5
100
AcDbSymbolTableRecord
100
AcDbLinetypeTableRecord
  2
CENTER
 70
64
  3
____ _ ____ _ ____ _ ____ _ ____ _ ____ _ ____
 72
65
 73
4
 40
0.6
 49
0.375
 74
0
 49
-0.075
 74
0
 49
0.075
 74
0
 49
-0.075
 74
0
  0
LTYPE
  5
1F6
100
AcDbSymbolTableRecord
100
AcDbLinetypeTableRecord
  2
HIDDEN
 70
64
  3
- - - - - - - - - - - - - - - - - - - -
 72
65
 73
2
 40
0.2
 49
0.1
 74
0
 49
-0.1
 74
0
  0
LTYPE
  5
1F7
100
AcDbSymbolTableRecord
100
AcDbLinetypeTableRecord
  2
PHANTOM
 70
64
  3
_____ _ _ _____ _ _ _____ _ _ _____
 72
65
 73
6
 40
0.8
 49
0.45
 74
0
 49
-0.05
 74
0
 49
0.1
 74
0
 49
-0.05
 74
0
 49
0.1
 74
0
 49
-0.05
 74
0
  0
LTYPE
  5
1F8
100
AcDbSymbolTableRecord
100
AcDbLinetypeTableRecord
  2
DOT
 70
64
  3
. . . . . . . . . . . . . . . . . . . .
 72
65
 73
2
 40
0.2
 49
0.1
 74
0
 49
-0.1
 74
0
  0
LTYPE
  5
1F9
100
AcDbSymbolTableRecord
100
AcDbLinetypeTableRecord
  2
DASHED
 70
64
  3
- - - - - - - - - - - - - - - - - - - -
 72
65
 73
2
 40
0.2
 49
0.1
 74
0
 49
-0.1
 74
0
  0
ENDTAB
  0
TABLE
  2
LAYER
  5
2
100
AcDbSymbolTable
 70
36
  0
LAYER
  5
10
100
AcDbSymbolTableRecord
100
AcDbLayerTableRecord
  2
0
 70
0
 62
7
  6
CONTINUOUS
370
-3
390
F
  0
LAYER
  5
1FA
100
AcDbSymbolTableRecord
100
AcDbLayerTableRecord
  2
DEFAULT_1
 70
0
 62
7
  6
CENTER
370
-3
390
F
  0
LAYER
  5
1FB
100
AcDbSymbolTableRecord
100
AcDbLayerTableRecord
  2
DEFAULT_2
 70
0
 62
8
  6
HIDDEN
370
-3
390
F
  0
LAYER
  5
1FC
100
AcDbSymbolTableRecord
100
AcDbLayerTableRecord
  2
DEFAULT_3
 70
0
 62
7
  6
PHANTOM
370
-3
390
F
  0
LAYER
  5
1FD
100
AcDbSymbolTableRecord
100
AcDbLayerTableRecord
  2
S-EBENEN
 70
0
 62
7
  6
CONTINUOUS
370
-3
390
F
  0
LAYER
  5
1FE
100
AcDbSymbolTableRecord
100
AcDbLayerTableRecord
  2
S-KOORDINATENSYSTEM
 70
0
 62
7
  6
CONTINUOUS
370
-3
390
F
  0
LAYER
  5
1FF
100
AcDbSymbolTableRecord
100
AcDbLayerTableRecord
  2
_ACHSEN
 70
0
 62
7
  6
CONTINUOUS
370
-3
390
F
  0
LAYER
  5
200
100
AcDbSymbolTableRecord
100
AcDbLayerTableRecord
  2
_EBENEN
 70
0
 62
7
  6
CONTINUOUS
370
-3
390
F
  0
LAYER
  5
201
100
AcDbSymbolTableRecord
100
AcDbLayerTableRecord
  2
_FLAECHEN
 70
0
 62
7
  6
CONTINUOUS
370
-3
390
F
  0
LAYER
  5
202
100
AcDbSymbolTableRecord
100
AcDbLayerTableRecord
  2
_GEWINDE
 70
0
 62
7
  6
CONTINUOUS
370
-3
390
F
  0
LAYER
  5
203
100
AcDbSymbolTableRecord
100
AcDbLayerTableRecord
  2
_KOORD_SYS
 70
0
 62
7
  6
CONTINUOUS
370
-3
390
F
  0
LAYER
  5
204
100
AcDbSymbolTableRecord
100
AcDbLayerTableRecord
  2
_KOPIE_GEOM
 70
0
 62
7
  6
CONTINUOUS
370
-3
390
F
  0
LAYER
  5
205
100
AcDbSymbolTableRecord
100
AcDbLayerTableRecord
  2
_KOSMETIK
 70
0
 62
7
  6
CONTINUOUS
370
-3
390
F
  0
LAYER
  5
206
100
AcDbSymbolTableRecord
100
AcDbLayerTableRecord
  2
_KURVEN
 70
0
 62
7
  6
CONTINUOUS
370
-3
390
F
  0
LAYER
  5
207
100
AcDbSymbolTableRecord
100
AcDbLayerTableRecord
  2
_NOTIZEN
 70
0
 62
7
  6
CONTINUOUS
370
-3
390
F
  0
LAYER
  5
208
100
AcDbSymbolTableRecord
100
AcDbLayerTableRecord
  2
_PUNKTE
 70
0
 62
7
  6
CONTINUOUS
370
-3
390
F
  0
LAYER
  5
209
100
AcDbSymbolTableRecord
100
AcDbLayerTableRecord
  2
_SAMMELFLAECHEN
 70
0
 62
7
  6
CONTINUOUS
370
-3
390
F
  0
LAYER
  5
20A
100
AcDbSymbolTableRecord
100
AcDbLayerTableRecord
  2
_SYMBOLE
 70
0
 62
7
  6
CONTINUOUS
370
-3
390
F
  0
LAYER
  5
20B
100
AcDbSymbolTableRecord
100
AcDbLayerTableRecord
  2
_TOLERANZEN
 70
0
 62
7
  6
CONTINUOUS
370
-3
390
F
  0
LAYER
  5
20C
100
AcDbSymbolTableRecord
100
AcDbLayerTableRecord
  2
_ZEICH_ELEMENTE
 70
0
 62
7
  6
CONTINUOUS
370
-3
390
F
  0
ENDTAB
  0
TABLE
  2
STYLE
  5
3
100
AcDbSymbolTable
 70
1
  0
STYLE
  5
11
100
AcDbSymbolTableRecord
100
AcDbTextStyleTableRecord
  2
STANDARD
 70
0
 40
0.0
 41
0.8
 50
0.0
 71
0
 42
0.2
  3
txt
  4

  0
STYLE
  5
20D
100
AcDbSymbolTableRecord
100
AcDbTextStyleTableRecord
  2
TEXTSTYLE_1
 70
0
 40
0.0
 41
0.8
 50
0.0
 71
0
 42
0.2
  3
gdt
  4

  0
ENDTAB
  0
TABLE
  2
VIEW
  5
6
100
AcDbSymbolTable
 70
0
  0
ENDTAB
  0
TABLE
  2
UCS
  5
7
100
AcDbSymbolTable
 70
0
  0
ENDTAB
  0
TABLE
  2
APPID
  5
9
100
AcDbSymbolTable
 70
1
  0
APPID
  5
20E
100
AcDbSymbolTableRecord
100
AcDbRegAppTableRecord
  2
ACAD
 70
0
  0
ENDTAB
  0
TABLE
  2
BLOCK_RECORD
  5
1
100
AcDbSymbolTable
 70
0
  0
BLOCK_RECORD
  5
20F
100
AcDbSymbolTableRecord
100
AcDbBlockTableRecord
  2
*Model_Space
  0
BLOCK_RECORD
  5
210
100
AcDbSymbolTableRecord
100
AcDbBlockTableRecord
  2
*Paper_Space
  0
BLOCK_RECORD
  5
211
100
AcDbSymbolTableRecord
100
AcDbBlockTableRecord
  2
_FILLED
  0
ENDTAB
  0
TABLE
  2
DIMSTYLE
  5
A
100
AcDbSymbolTable
 70
1
100
AcDbDimStyleTable
 71
0
  0
DIMSTYLE
105
212
100
AcDbSymbolTableRecord
100
AcDbDimStyleTableRecord
  2
STANDARD
 70
0
  3

  4

 40
1.0
 41
3.5
 42
0.0
 43
0.38
 44
1.0
 45
0.0
 46
0.0
 47
0.01
 48
0.01
140
3.5
141
0.09
142
0.0
143
25.4
144
1.0
145
0.0
146
1.0
147
0.625
 71
1
 72
0
 73
0
 74
0
 75
0
 76
0
 77
1
 78
8
 79
2
170
0
171
1
172
0
173
0
174
0
175
0
176
0
177
0
178
0
270
2
179
2
271
2
272
2
273
2
274
2
275
0
280
0
281
0
282
0
283
1
284
8
285
0
286
0
287
3
288
0
340
11
278
46
341
211
342
211
343
211
344
211
  0
ENDTAB
  0
ENDSEC
  0
SECTION
  2
BLOCKS
  0
BLOCK
  5
20
100
AcDbEntity
  8
0
100
AcDbBlockBegin
  2
*Model_Space
 70
0
 10
0.0
 20
0.0
 30
0.0
  3
*Model_Space
  1

  0
ENDBLK
  5
21
100
AcDbEntity
  8
0
100
AcDbBlockEnd
  0
BLOCK
  5
1C
100
AcDbEntity
  8
0
100
AcDbBlockBegin
  2
*Paper_Space
 70
0
 10
0.0
 20
0.0
 30
0.0
  3
*Paper_Space
  1

  0
ENDBLK
  5
1D
100
AcDbEntity
  8
0
100
AcDbBlockEnd
  0
BLOCK
  5
213
100
AcDbEntity
  8
0
100
AcDbBlockBegin
  2
_FILLED
 70
64
 10
0.0
 20
0.0
 30
0.0
  3
_FILLED
  1

  0
SOLID
  5
214
100
AcDbEntity
  8
0
  6
BYBLOCK
 62
0
100
AcDbTrace
 10
0.0
 20
0.0
 30
0.0
 11
-1.0
 21
0.1285714286
 31
0.0
 12
-1.0
 22
-0.1285714286
 32
0.0
 13
-1.0
 23
-0.1285714286
 33
0.0
  0
ENDBLK
  5
215
100
AcDbEntity
  8
0
  6
BYBLOCK
 62
0
100
AcDbBlockEnd
  0
ENDSEC
  0
SECTION
  2
ENTITIES
  0
LINE
  5
216
100
AcDbEntity
  8
S-KOORDINATENSYSTEM
100
AcDbLine
 62
7
420
16724787
  6
CONTINUOUS
 10
299.5006864383
 20
250.5327661792
 30
0.0
 11
311.8206864383
 21
250.5327661792
 31
0.0
  0
SOLID
  5
217
100
AcDbEntity
  8
S-KOORDINATENSYSTEM
100
AcDbTrace
 62
7
420
16724787
  6
CONTINUOUS
 10
299.5006864383
 20
250.5327661792
 30
0.0
 11
303.0006864383
 21
250.9827661792
 31
0.0
 12
303.0006864383
 22
250.0827661792
 32
0.0
 13
303.0006864383
 23
250.0827661792
 33
0.0
  0
LINE
  5
218
100
AcDbEntity
  8
S-KOORDINATENSYSTEM
100
AcDbLine
 62
7
420
3407667
  6
CONTINUOUS
 10
311.8206864383
 20
262.8527661792
 30
0.0
 11
311.8206864383
 21
250.5327661792
 31
0.0
  0
SOLID
  5
219
100
AcDbEntity
  8
S-KOORDINATENSYSTEM
100
AcDbTrace
 62
7
420
3407667
  6
CONTINUOUS
 10
311.8206864383
 20
262.8527661792
 30
0.0
 11
312.2706864383
 21
259.3527661792
 31
0.0
 12
311.3706864383
 22
259.3527661792
 32
0.0
 13
311.3706864383
 23
259.3527661792
 33
0.0
  0
MTEXT
  5
21A
100
AcDbEntity
  8
S-KOORDINATENSYSTEM
100
AcDbMText
 62
7
420
16724787
  6
CONTINUOUS
  7
STANDARD
 71
1
 72
1
 10
296.751023173
 20
253.6233733221
 30
0.0
 11
1.0
 21
0.0
 31
0.0
 73
2
 44
0.9
  1
X
 40
2.3866071429
 41
3.068494898
  0
MTEXT
  5
21B
100
AcDbEntity
  8
S-KOORDINATENSYSTEM
100
AcDbMText
 62
7
420
3407667
  6
CONTINUOUS
  7
STANDARD
 71
1
 72
1
 10
312.5246864383
 20
265.9433733221
 30
0.0
 11
1.0
 21
0.0
 31
0.0
 73
2
 44
0.9
  1
Y
 40
2.3866071429
 41
3.068494898
  0
MTEXT
  5
21C
100
AcDbEntity
  8
S-KOORDINATENSYSTEM
100
AcDbMText
 62
7
420
3407871
  6
CONTINUOUS
  7
STANDARD
 71
1
 72
1
 10
312.5246864383
 20
253.6233733221
 30
0.0
 11
1.0
 21
0.0
 31
0.0
 73
2
 44
0.9
  1
Z
 40
2.3866071429
 41
2.8127869898
  0
MTEXT
  5
21D
100
AcDbEntity
  8
S-KOORDINATENSYSTEM
100
AcDbMText
 62
7
  6
CONTINUOUS
  7
STANDARD
 71
1
 72
1
 10
312.5246864383
 20
249.8287661792
 30
0.0
 11
1.0
 21
0.0
 31
0.0
 73
2
 44
0.9
  1
BASIS
 40
3.5
 41
20.25
  0
LINE
  5
21E
100
AcDbEntity
  8
S-KOORDINATENSYSTEM
100
AcDbLine
 62
7
420
16724787
  6
CONTINUOUS
 10
575.8343118173
 20
182.9780748516
 30
0.0
 11
563.5143118173
 21
182.9780748516
 31
0.0
  0
SOLID
  5
21F
100
AcDbEntity
  8
S-KOORDINATENSYSTEM
100
AcDbTrace
 62
7
420
16724787
  6
CONTINUOUS
 10
575.8343118173
 20
182.9780748516
 30
0.0
 11
572.3343118173
 21
182.5280748516
 31
0.0
 12
572.3343118173
 22
183.4280748516
 32
0.0
 13
572.3343118173
 23
183.4280748516
 33
0.0
  0
LINE
  5
220
100
AcDbEntity
  8
S-KOORDINATENSYSTEM
100
AcDbLine
 62
7
420
3407871
  6
CONTINUOUS
 10
563.5143118173
 20
195.2980748516
 30
0.0
 11
563.5143118173
 21
182.9780748516
 31
0.0
  0
SOLID
  5
221
100
AcDbEntity
  8
S-KOORDINATENSYSTEM
100
AcDbTrace
 62
7
420
3407871
  6
CONTINUOUS
 10
563.5143118173
 20
195.2980748516
 30
0.0
 11
563.9643118173
 21
191.7980748516
 31
0.0
 12
563.0643118173
 22
191.7980748516
 32
0.0
 13
563.0643118173
 23
191.7980748516
 33
0.0
  0
MTEXT
  5
222
100
AcDbEntity
  8
S-KOORDINATENSYSTEM
100
AcDbMText
 62
7
420
16724787
  6
CONTINUOUS
  7
STANDARD
 71
1
 72
1
 10
576.5383118173
 20
186.0686819945
 30
0.0
 11
1.0
 21
0.0
 31
0.0
 73
2
 44
0.9
  1
X
 40
2.3866071429
 41
3.068494898
  0
MTEXT
  5
223
100
AcDbEntity
  8
S-KOORDINATENSYSTEM
100
AcDbMText
 62
7
420
3407667
  6
CONTINUOUS
  7
STANDARD
 71
1
 72
1
 10
564.2183118173
 20
186.0686819945
 30
0.0
 11
1.0
 21
0.0
 31
0.0
 73
2
 44
0.9
  1
Y
 40
2.3866071429
 41
3.068494898
  0
MTEXT
  5
224
100
AcDbEntity
  8
S-KOORDINATENSYSTEM
100
AcDbMText
 62
7
420
3407871
  6
CONTINUOUS
  7
STANDARD
 71
1
 72
1
 10
564.2183118173
 20
198.3886819945
 30
0.0
 11
1.0
 21
0.0
 31
0.0
 73
2
 44
0.9
  1
Z
 40
2.3866071429
 41
2.8127869898
  0
MTEXT
  5
225
100
AcDbEntity
  8
S-KOORDINATENSYSTEM
100
AcDbMText
 62
7
  6
CONTINUOUS
  7
STANDARD
 71
1
 72
1
 10
564.2183118173
 20
182.2740748516
 30
0.0
 11
1.0
 21
0.0
 31
0.0
 73
2
 44
0.9
  1
BASIS
 40
3.5
 41
20.25
  0
LINE
  5
226
100
AcDbEntity
  8
S-KOORDINATENSYSTEM
100
AcDbLine
 62
7
420
16724787
  6
CONTINUOUS
 10
378.2757327667
 20
164.7245788601
 30
0.0
 11
390.5957327667
 21
164.7245788601
 31
0.0
  0
SOLID
  5
227
100
AcDbEntity
  8
S-KOORDINATENSYSTEM
100
AcDbTrace
 62
7
420
16724787
  6
CONTINUOUS
 10
378.2757327667
 20
164.7245788601
 30
0.0
 11
381.7757327667
 21
165.1745788601
 31
0.0
 12
381.7757327667
 22
164.2745788601
 32
0.0
 13
381.7757327667
 23
164.2745788601
 33
0.0
  0
LINE
  5
228
100
AcDbEntity
  8
S-KOORDINATENSYSTEM
100
AcDbLine
 62
7
420
3407667
  6
CONTINUOUS
 10
390.5957327667
 20
177.0445788601
 30
0.0
 11
390.5957327667
 21
164.7245788601
 31
0.0
  0
SOLID
  5
229
100
AcDbEntity
  8
S-KOORDINATENSYSTEM
100
AcDbTrace
 62
7
420
3407667
  6
CONTINUOUS
 10
390.5957327667
 20
177.0445788601
 30
0.0
 11
391.0457327667
 21
173.5445788601
 31
0.0
 12
390.1457327667
 22
173.5445788601
 32
0.0
 13
390.1457327667
 23
173.5445788601
 33
0.0
  0
MTEXT
  5
22A
100
AcDbEntity
  8
S-KOORDINATENSYSTEM
100
AcDbMText
 62
7
420
16724787
  6
CONTINUOUS
  7
STANDARD
 71
1
 72
1
 10
375.5260695014
 20
167.815186003
 30
0.0
 11
1.0
 21
0.0
 31
0.0
 73
2
 44
0.9
  1
X
 40
2.3866071429
 41
3.068494898
  0
MTEXT
  5
22B
100
AcDbEntity
  8
S-KOORDINATENSYSTEM
100
AcDbMText
 62
7
420
3407667
  6
CONTINUOUS
  7
STANDARD
 71
1
 72
1
 10
391.2997327667
 20
180.135186003
 30
0.0
 11
1.0
 21
0.0
 31
0.0
 73
2
 44
0.9
  1
Y
 40
2.3866071429
 41
3.068494898
  0
MTEXT
  5
22C
100
AcDbEntity
  8
S-KOORDINATENSYSTEM
100
AcDbMText
 62
7
420
3407871
  6
CONTINUOUS
  7
STANDARD
 71
1
 72
1
 10
391.2997327667
 20
167.815186003
 30
0.0
 11
1.0
 21
0.0
 31
0.0
 73
2
 44
0.9
  1
Z
 40
2.3866071429
 41
2.8127869898
  0
MTEXT
  5
22D
100
AcDbEntity
  8
S-KOORDINATENSYSTEM
100
AcDbMText
 62
7
  6
CONTINUOUS
  7
STANDARD
 71
1
 72
1
 10
391.2997327667
 20
164.0205788601
 30
0.0
 11
1.0
 21
0.0
 31
0.0
 73
2
 44
0.9
  1
BASIS
 40
3.5
 41
20.25
  0
LINE
  5
22E
100
AcDbEntity
  8
S-KOORDINATENSYSTEM
100
AcDbLine
 62
7
420
16724787
  6
CONTINUOUS
 10
379.7769461775
 20
98.862060468
 30
0.0
 11
392.0969461775
 21
98.862060468
 31
0.0
  0
SOLID
  5
22F
100
AcDbEntity
  8
S-KOORDINATENSYSTEM
100
AcDbTrace
 62
7
420
16724787
  6
CONTINUOUS
 10
379.7769461775
 20
98.862060468
 30
0.0
 11
383.2769461775
 21
99.312060468
 31
0.0
 12
383.2769461775
 22
98.412060468
 32
0.0
 13
383.2769461775
 23
98.412060468
 33
0.0
  0
LINE
  5
230
100
AcDbEntity
  8
S-KOORDINATENSYSTEM
100
AcDbLine
 62
7
420
3407667
  6
CONTINUOUS
 10
392.0969461775
 20
111.182060468
 30
0.0
 11
392.0969461775
 21
98.862060468
 31
0.0
  0
SOLID
  5
231
100
AcDbEntity
  8
S-KOORDINATENSYSTEM
100
AcDbTrace
 62
7
420
3407667
  6
CONTINUOUS
 10
392.0969461775
 20
111.182060468
 30
0.0
 11
392.5469461775
 21
107.682060468
 31
0.0
 12
391.6469461775
 22
107.682060468
 32
0.0
 13
391.6469461775
 23
107.682060468
 33
0.0
  0
MTEXT
  5
232
100
AcDbEntity
  8
S-KOORDINATENSYSTEM
100
AcDbMText
 62
7
420
16724787
  6
CONTINUOUS
  7
STANDARD
 71
1
 72
1
 10
377.0272829121
 20
101.9526676109
 30
0.0
 11
1.0
 21
0.0
 31
0.0
 73
2
 44
0.9
  1
X
 40
2.3866071429
 41
3.068494898
  0
MTEXT
  5
233
100
AcDbEntity
  8
S-KOORDINATENSYSTEM
100
AcDbMText
 62
7
420
3407667
  6
CONTINUOUS
  7
STANDARD
 71
1
 72
1
 10
392.8009461775
 20
114.2726676109
 30
0.0
 11
1.0
 21
0.0
 31
0.0
 73
2
 44
0.9
  1
Y
 40
2.3866071429
 41
3.068494898
  0
MTEXT
  5
234
100
AcDbEntity
  8
S-KOORDINATENSYSTEM
100
AcDbMText
 62
7
420
3407871
  6
CONTINUOUS
  7
STANDARD
 71
1
 72
1
 10
392.8009461775
 20
101.9526676109
 30
0.0
 11
1.0
 21
0.0
 31
0.0
 73
2
 44
0.9
  1
Z
 40
2.3866071429
 41
2.8127869898
  0
MTEXT
  5
235
100
AcDbEntity
  8
S-KOORDINATENSYSTEM
100
AcDbMText
 62
7
  6
CONTINUOUS
  7
STANDARD
 71
1
 72
1
 10
392.8009461775
 20
98.158060468
 30
0.0
 11
1.0
 21
0.0
 31
0.0
 73
2
 44
0.9
  1
BASIS
 40
3.5
 41
20.25
  0
LINE
  5
236
100
AcDbEntity
  8
S-KOORDINATENSYSTEM
100
AcDbLine
 62
7
420
16724787
  6
CONTINUOUS
 10
338.9865405955
 20
54.2123283801
 30
0.0
 11
326.6665405955
 21
54.2123283801
 31
0.0
  0
SOLID
  5
237
100
AcDbEntity
  8
S-KOORDINATENSYSTEM
100
AcDbTrace
 62
7
420
16724787
  6
CONTINUOUS
 10
338.9865405955
 20
54.2123283801
 30
0.0
 11
335.4865405955
 21
53.7623283801
 31
0.0
 12
335.4865405955
 22
54.6623283801
 32
0.0
 13
335.4865405955
 23
54.6623283801
 33
0.0
  0
LINE
  5
238
100
AcDbEntity
  8
S-KOORDINATENSYSTEM
100
AcDbLine
 62
7
420
3407871
  6
CONTINUOUS
 10
326.6665405955
 20
41.8923283801
 30
0.0
 11
326.6665405955
 21
54.2123283801
 31
0.0
  0
SOLID
  5
239
100
AcDbEntity
  8
S-KOORDINATENSYSTEM
100
AcDbTrace
 62
7
420
3407871
  6
CONTINUOUS
 10
326.6665405955
 20
41.8923283801
 30
0.0
 11
326.2165405955
 21
45.3923283801
 31
0.0
 12
327.1165405955
 22
45.3923283801
 32
0.0
 13
327.1165405955
 23
45.3923283801
 33
0.0
  0
MTEXT
  5
23A
100
AcDbEntity
  8
S-KOORDINATENSYSTEM
100
AcDbMText
 62
7
420
16724787
  6
CONTINUOUS
  7
STANDARD
 71
1
 72
1
 10
339.6905405955
 20
57.302935523
 30
0.0
 11
1.0
 21
0.0
 31
0.0
 73
2
 44
0.9
  1
X
 40
2.3866071429
 41
3.068494898
  0
MTEXT
  5
23B
100
AcDbEntity
  8
S-KOORDINATENSYSTEM
100
AcDbMText
 62
7
420
3407667
  6
CONTINUOUS
  7
STANDARD
 71
1
 72
1
 10
327.3705405955
 20
57.302935523
 30
0.0
 11
1.0
 21
0.0
 31
0.0
 73
2
 44
0.9
  1
Y
 40
2.3866071429
 41
3.068494898
  0
MTEXT
  5
23C
100
AcDbEntity
  8
S-KOORDINATENSYSTEM
100
AcDbMText
 62
7
420
3407871
  6
CONTINUOUS
  7
STANDARD
 71
1
 72
1
 10
327.3705405955
 20
41.1883283801
 30
0.0
 11
1.0
 21
0.0
 31
0.0
 73
2
 44
0.9
  1
Z
 40
2.3866071429
 41
2.8127869898
  0
MTEXT
  5
23D
100
AcDbEntity
  8
S-KOORDINATENSYSTEM
100
AcDbMText
 62
7
  6
CONTINUOUS
  7
STANDARD
 71
1
 72
1
 10
312.4625405955
 20
53.5083283801
 30
0.0
 11
1.0
 21
0.0
 31
0.0
 73
2
 44
0.9
  1
BASIS
 40
3.5
 41
20.25
  0
LINE
  5
23E
100
AcDbEntity
  8
S-KOORDINATENSYSTEM
100
AcDbLine
 62
7
420
16724787
  6
CONTINUOUS
 10
424.3943795785
 20
25.7906354511
 30
0.0
 11
412.0743795785
 21
25.7906354511
 31
0.0
  0
SOLID
  5
23F
100
AcDbEntity
  8
S-KOORDINATENSYSTEM
100
AcDbTrace
 62
7
420
16724787
  6
CONTINUOUS
 10
424.3943795785
 20
25.7906354511
 30
0.0
 11
420.8943795785
 21
25.3406354511
 31
0.0
 12
420.8943795785
 22
26.2406354511
 32
0.0
 13
420.8943795785
 23
26.2406354511
 33
0.0
  0
LINE
  5
240
100
AcDbEntity
  8
S-KOORDINATENSYSTEM
100
AcDbLine
 62
7
420
3407871
  6
CONTINUOUS
 10
412.0743795785
 20
13.4706354511
 30
0.0
 11
412.0743795785
 21
25.7906354511
 31
0.0
  0
SOLID
  5
241
100
AcDbEntity
  8
S-KOORDINATENSYSTEM
100
AcDbTrace
 62
7
420
3407871
  6
CONTINUOUS
 10
412.0743795785
 20
13.4706354511
 30
0.0
 11
411.6243795785
 21
16.9706354511
 31
0.0
 12
412.5243795785
 22
16.9706354511
 32
0.0
 13
412.5243795785
 23
16.9706354511
 33
0.0
  0
MTEXT
  5
242
100
AcDbEntity
  8
S-KOORDINATENSYSTEM
100
AcDbMText
 62
7
420
16724787
  6
CONTINUOUS
  7
STANDARD
 71
1
 72
1
 10
425.0983795785
 20
28.881242594
 30
0.0
 11
1.0
 21
0.0
 31
0.0
 73
2
 44
0.9
  1
X
 40
2.3866071429
 41
3.068494898
  0
MTEXT
  5
243
100
AcDbEntity
  8
S-KOORDINATENSYSTEM
100
AcDbMText
 62
7
420
3407667
  6
CONTINUOUS
  7
STANDARD
 71
1
 72
1
 10
412.7783795785
 20
28.881242594
 30
0.0
 11
1.0
 21
0.0
 31
0.0
 73
2
 44
0.9
  1
Y
 40
2.3866071429
 41
3.068494898
  0
MTEXT
  5
244
100
AcDbEntity
  8
S-KOORDINATENSYSTEM
100
AcDbMText
 62
7
420
3407871
  6
CONTINUOUS
  7
STANDARD
 71
1
 72
1
 10
412.7783795785
 20
12.7666354511
 30
0.0
 11
1.0
 21
0.0
 31
0.0
 73
2
 44
0.9
  1
Z
 40
2.3866071429
 41
2.8127869898
  0
MTEXT
  5
245
100
AcDbEntity
  8
S-KOORDINATENSYSTEM
100
AcDbMText
 62
7
  6
CONTINUOUS
  7
STANDARD
 71
1
 72
1
 10
397.8703795785
 20
25.0866354511
 30
0.0
 11
1.0
 21
0.0
 31
0.0
 73
2
 44
0.9
  1
BASIS
 40
3.5
 41
20.25
  0
LINE
  5
246
100
AcDbEntity
  8
S-KOORDINATENSYSTEM
100
AcDbLine
 62
7
420
16724787
  6
CONTINUOUS
 10
480.4845660546
 20
225.8806172245
 30
0.0
 11
492.8045660546
 21
225.8806172245
 31
0.0
  0
SOLID
  5
247
100
AcDbEntity
  8
S-KOORDINATENSYSTEM
100
AcDbTrace
 62
7
420
16724787
  6
CONTINUOUS
 10
480.4845660546
 20
225.8806172245
 30
0.0
 11
483.9845660546
 21
226.3306172245
 31
0.0
 12
483.9845660546
 22
225.4306172245
 32
0.0
 13
483.9845660546
 23
225.4306172245
 33
0.0
  0
LINE
  5
248
100
AcDbEntity
  8
S-KOORDINATENSYSTEM
100
AcDbLine
 62
7
420
3407667
  6
CONTINUOUS
 10
492.8045660546
 20
238.2006172245
 30
0.0
 11
492.8045660546
 21
225.8806172245
 31
0.0
  0
SOLID
  5
249
100
AcDbEntity
  8
S-KOORDINATENSYSTEM
100
AcDbTrace
 62
7
420
3407667
  6
CONTINUOUS
 10
492.8045660546
 20
238.2006172245
 30
0.0
 11
493.2545660546
 21
234.7006172245
 31
0.0
 12
492.3545660546
 22
234.7006172245
 32
0.0
 13
492.3545660546
 23
234.7006172245
 33
0.0
  0
MTEXT
  5
24A
100
AcDbEntity
  8
S-KOORDINATENSYSTEM
100
AcDbMText
 62
7
420
16724787
  6
CONTINUOUS
  7
STANDARD
 71
1
 72
1
 10
477.7349027893
 20
228.9712243674
 30
0.0
 11
1.0
 21
0.0
 31
0.0
 73
2
 44
0.9
  1
X
 40
2.3866071429
 41
3.068494898
  0
MTEXT
  5
24B
100
AcDbEntity
  8
S-KOORDINATENSYSTEM
100
AcDbMText
 62
7
420
3407667
  6
CONTINUOUS
  7
STANDARD
 71
1
 72
1
 10
493.5085660546
 20
241.2912243674
 30
0.0
 11
1.0
 21
0.0
 31
0.0
 73
2
 44
0.9
  1
Y
 40
2.3866071429
 41
3.068494898
  0
MTEXT
  5
24C
100
AcDbEntity
  8
S-KOORDINATENSYSTEM
100
AcDbMText
 62
7
420
3407871
  6
CONTINUOUS
  7
STANDARD
 71
1
 72
1
 10
493.5085660546
 20
228.9712243674
 30
0.0
 11
1.0
 21
0.0
 31
0.0
 73
2
 44
0.9
  1
Z
 40
2.3866071429
 41
2.8127869898
  0
MTEXT
  5
24D
100
AcDbEntity
  8
S-KOORDINATENSYSTEM
100
AcDbMText
 62
7
  6
CONTINUOUS
  7
STANDARD
 71
1
 72
1
 10
493.5085660546
 20
225.1766172245
 30
0.0
 11
1.0
 21
0.0
 31
0.0
 73
2
 44
0.9
  1
BASIS
 40
3.5
 41
20.25
  0
LINE
  5
24E
100
AcDbEntity
  8
S-KOORDINATENSYSTEM
100
AcDbLine
 62
7
420
16724787
  6
CONTINUOUS
 10
655.6699474106
 20
224.2916341737
 30
0.0
 11
667.9899474106
 21
224.2916341737
 31
0.0
  0
SOLID
  5
24F
100
AcDbEntity
  8
S-KOORDINATENSYSTEM
100
AcDbTrace
 62
7
420
16724787
  6
CONTINUOUS
 10
655.6699474106
 20
224.2916341737
 30
0.0
 11
659.1699474106
 21
224.7416341737
 31
0.0
 12
659.1699474106
 22
223.8416341737
 32
0.0
 13
659.1699474106
 23
223.8416341737
 33
0.0
  0
LINE
  5
250
100
AcDbEntity
  8
S-KOORDINATENSYSTEM
100
AcDbLine
 62
7
420
3407667
  6
CONTINUOUS
 10
667.9899474106
 20
236.6116341737
 30
0.0
 11
667.9899474106
 21
224.2916341737
 31
0.0
  0
SOLID
  5
251
100
AcDbEntity
  8
S-KOORDINATENSYSTEM
100
AcDbTrace
 62
7
420
3407667
  6
CONTINUOUS
 10
667.9899474106
 20
236.6116341737
 30
0.0
 11
668.4399474106
 21
233.1116341737
 31
0.0
 12
667.5399474106
 22
233.1116341737
 32
0.0
 13
667.5399474106
 23
233.1116341737
 33
0.0
  0
MTEXT
  5
252
100
AcDbEntity
  8
S-KOORDINATENSYSTEM
100
AcDbMText
 62
7
420
16724787
  6
CONTINUOUS
  7
STANDARD
 71
1
 72
1
 10
652.9202841453
 20
227.3822413165
 30
0.0
 11
1.0
 21
0.0
 31
0.0
 73
2
 44
0.9
  1
X
 40
2.3866071429
 41
3.068494898
  0
MTEXT
  5
253
100
AcDbEntity
  8
S-KOORDINATENSYSTEM
100
AcDbMText
 62
7
420
3407667
  6
CONTINUOUS
  7
STANDARD
 71
1
 72
1
 10
668.6939474106
 20
239.7022413165
 30
0.0
 11
1.0
 21
0.0
 31
0.0
 73
2
 44
0.9
  1
Y
 40
2.3866071429
 41
3.068494898
  0
MTEXT
  5
254
100
AcDbEntity
  8
S-KOORDINATENSYSTEM
100
AcDbMText
 62
7
420
3407871
  6
CONTINUOUS
  7
STANDARD
 71
1
 72
1
 10
668.6939474106
 20
227.3822413165
 30
0.0
 11
1.0
 21
0.0
 31
0.0
 73
2
 44
0.9
  1
Z
 40
2.3866071429
 41
2.8127869898
  0
MTEXT
  5
255
100
AcDbEntity
  8
S-KOORDINATENSYSTEM
100
AcDbMText
 62
7
  6
CONTINUOUS
  7
STANDARD
 71
1
 72
1
 10
668.6939474106
 20
223.5876341737
 30
0.0
 11
1.0
 21
0.0
 31
0.0
 73
2
 44
0.9
  1
BASIS
 40
3.5
 41
20.25
  0
LINE
  5
256
100
AcDbEntity
  8
S-KOORDINATENSYSTEM
100
AcDbLine
 62
7
420
16724787
  6
CONTINUOUS
 10
809.5749022386
 20
106.625746067
 30
0.0
 11
797.2549022386
 21
106.625746067
 31
0.0
  0
SOLID
  5
257
100
AcDbEntity
  8
S-KOORDINATENSYSTEM
100
AcDbTrace
 62
7
420
16724787
  6
CONTINUOUS
 10
809.5749022386
 20
106.625746067
 30
0.0
 11
806.0749022386
 21
106.175746067
 31
0.0
 12
806.0749022386
 22
107.075746067
 32
0.0
 13
806.0749022386
 23
107.075746067
 33
0.0
  0
LINE
  5
258
100
AcDbEntity
  8
S-KOORDINATENSYSTEM
100
AcDbLine
 62
7
420
3407871
  6
CONTINUOUS
 10
797.2549022386
 20
94.305746067
 30
0.0
 11
797.2549022386
 21
106.625746067
 31
0.0
  0
SOLID
  5
259
100
AcDbEntity
  8
S-KOORDINATENSYSTEM
100
AcDbTrace
 62
7
420
3407871
  6
CONTINUOUS
 10
797.2549022386
 20
94.305746067
 30
0.0
 11
796.8049022386
 21
97.805746067
 31
0.0
 12
797.7049022386
 22
97.805746067
 32
0.0
 13
797.7049022386
 23
97.805746067
 33
0.0
  0
MTEXT
  5
25A
100
AcDbEntity
  8
S-KOORDINATENSYSTEM
100
AcDbMText
 62
7
420
16724787
  6
CONTINUOUS
  7
STANDARD
 71
1
 72
1
 10
810.2789022386
 20
109.7163532098
 30
0.0
 11
1.0
 21
0.0
 31
0.0
 73
2
 44
0.9
  1
X
 40
2.3866071429
 41
3.068494898
  0
MTEXT
  5
25B
100
AcDbEntity
  8
S-KOORDINATENSYSTEM
100
AcDbMText
 62
7
420
3407667
  6
CONTINUOUS
  7
STANDARD
 71
1
 72
1
 10
797.9589022386
 20
109.7163532098
 30
0.0
 11
1.0
 21
0.0
 31
0.0
 73
2
 44
0.9
  1
Y
 40
2.3866071429
 41
3.068494898
  0
MTEXT
  5
25C
100
AcDbEntity
  8
S-KOORDINATENSYSTEM
100
AcDbMText
 62
7
420
3407871
  6
CONTINUOUS
  7
STANDARD
 71
1
 72
1
 10
797.9589022386
 20
93.601746067
 30
0.0
 11
1.0
 21
0.0
 31
0.0
 73
2
 44
0.9
  1
Z
 40
2.3866071429
 41
2.8127869898
  0
MTEXT
  5
25D
100
AcDbEntity
  8
S-KOORDINATENSYSTEM
100
AcDbMText
 62
7
  6
CONTINUOUS
  7
STANDARD
 71
1
 72
1
 10
783.0509022386
 20
105.921746067
 30
0.0
 11
1.0
 21
0.0
 31
0.0
 73
2
 44
0.9
  1
BASIS
 40
3.5
 41
20.25
  0
LINE
  5
25E
100
AcDbEntity
  8
S-KOORDINATENSYSTEM
100
AcDbLine
 62
7
420
16724787
  6
CONTINUOUS
 10
539.7677879785
 20
53.4445021043
 30
0.0
 11
527.4477879785
 21
53.4445021043
 31
0.0
  0
SOLID
  5
25F
100
AcDbEntity
  8
S-KOORDINATENSYSTEM
100
AcDbTrace
 62
7
420
16724787
  6
CONTINUOUS
 10
539.7677879785
 20
53.4445021043
 30
0.0
 11
536.2677879785
 21
52.9945021043
 31
0.0
 12
536.2677879785
 22
53.8945021043
 32
0.0
 13
536.2677879785
 23
53.8945021043
 33
0.0
  0
LINE
  5
260
100
AcDbEntity
  8
S-KOORDINATENSYSTEM
100
AcDbLine
 62
7
420
3407871
  6
CONTINUOUS
 10
527.4477879785
 20
41.1245021043
 30
0.0
 11
527.4477879785
 21
53.4445021043
 31
0.0
  0
SOLID
  5
261
100
AcDbEntity
  8
S-KOORDINATENSYSTEM
100
AcDbTrace
 62
7
420
3407871
  6
CONTINUOUS
 10
527.4477879785
 20
41.1245021043
 30
0.0
 11
526.9977879785
 21
44.6245021043
 31
0.0
 12
527.8977879785
 22
44.6245021043
 32
0.0
 13
527.8977879785
 23
44.6245021043
 33
0.0
  0
MTEXT
  5
262
100
AcDbEntity
  8
S-KOORDINATENSYSTEM
100
AcDbMText
 62
7
420
16724787
  6
CONTINUOUS
  7
STANDARD
 71
1
 72
1
 10
540.4717879785
 20
56.5351092472
 30
0.0
 11
1.0
 21
0.0
 31
0.0
 73
2
 44
0.9
  1
X
 40
2.3866071429
 41
3.068494898
  0
MTEXT
  5
263
100
AcDbEntity
  8
S-KOORDINATENSYSTEM
100
AcDbMText
 62
7
420
3407667
  6
CONTINUOUS
  7
STANDARD
 71
1
 72
1
 10
528.1517879785
 20
56.5351092472
 30
0.0
 11
1.0
 21
0.0
 31
0.0
 73
2
 44
0.9
  1
Y
 40
2.3866071429
 41
3.068494898
  0
MTEXT
  5
264
100
AcDbEntity
  8
S-KOORDINATENSYSTEM
100
AcDbMText
 62
7
420
3407871
  6
CONTINUOUS
  7
STANDARD
 71
1
 72
1
 10
528.1517879785
 20
40.4205021043
 30
0.0
 11
1.0
 21
0.0
 31
0.0
 73
2
 44
0.9
  1
Z
 40
2.3866071429
 41
2.8127869898
  0
MTEXT
  5
265
100
AcDbEntity
  8
S-KOORDINATENSYSTEM
100
AcDbMText
 62
7
  6
CONTINUOUS
  7
STANDARD
 71
1
 72
1
 10
513.2437879785
 20
52.7405021043
 30
0.0
 11
1.0
 21
0.0
 31
0.0
 73
2
 44
0.9
  1
BASIS
 40
3.5
 41
20.25
  0
LINE
  5
266
100
AcDbEntity
  8
S-KOORDINATENSYSTEM
100
AcDbLine
 62
7
420
16724787
  6
CONTINUOUS
 10
427.8387511753
 20
0.96635838
 30
0.0
 11
415.5187511753
 21
0.96635838
 31
0.0
  0
SOLID
  5
267
100
AcDbEntity
  8
S-KOORDINATENSYSTEM
100
AcDbTrace
 62
7
420
16724787
  6
CONTINUOUS
 10
427.8387511753
 20
0.96635838
 30
0.0
 11
424.3387511753
 21
0.51635838
 31
0.0
 12
424.3387511753
 22
1.41635838
 32
0.0
 13
424.3387511753
 23
1.41635838
 33
0.0
  0
LINE
  5
268
100
AcDbEntity
  8
S-KOORDINATENSYSTEM
100
AcDbLine
 62
7
420
3407871
  6
CONTINUOUS
 10
415.5187511753
 20
-11.35364162
 30
0.0
 11
415.5187511753
 21
0.96635838
 31
0.0
  0
SOLID
  5
269
100
AcDbEntity
  8
S-KOORDINATENSYSTEM
100
AcDbTrace
 62
7
420
3407871
  6
CONTINUOUS
 10
415.5187511753
 20
-11.35364162
 30
0.0
 11
415.0687511753
 21
-7.85364162
 31
0.0
 12
415.9687511753
 22
-7.85364162
 32
0.0
 13
415.9687511753
 23
-7.85364162
 33
0.0
  0
MTEXT
  5
26A
100
AcDbEntity
  8
S-KOORDINATENSYSTEM
100
AcDbMText
 62
7
420
16724787
  6
CONTINUOUS
  7
STANDARD
 71
1
 72
1
 10
428.5427511753
 20
4.0569655228
 30
0.0
 11
1.0
 21
0.0
 31
0.0
 73
2
 44
0.9
  1
X
 40
2.3866071429
 41
3.068494898
  0
MTEXT
  5
26B
100
AcDbEntity
  8
S-KOORDINATENSYSTEM
100
AcDbMText
 62
7
420
3407667
  6
CONTINUOUS
  7
STANDARD
 71
1
 72
1
 10
416.2227511753
 20
4.0569655228
 30
0.0
 11
1.0
 21
0.0
 31
0.0
 73
2
 44
0.9
  1
Y
 40
2.3866071429
 41
3.068494898
  0
MTEXT
  5
26C
100
AcDbEntity
  8
S-KOORDINATENSYSTEM
100
AcDbMText
 62
7
420
3407871
  6
CONTINUOUS
  7
STANDARD
 71
1
 72
1
 10
416.2227511753
 20
-12.05764162
 30
0.0
 11
1.0
 21
0.0
 31
0.0
 73
2
 44
0.9
  1
Z
 40
2.3866071429
 41
2.8127869898
  0
MTEXT
  5
26D
100
AcDbEntity
  8
S-KOORDINATENSYSTEM
100
AcDbMText
 62
7
  6
CONTINUOUS
  7
STANDARD
 71
1
 72
1
 10
401.3147511753
 20
0.26235838
 30
0.0
 11
1.0
 21
0.0
 31
0.0
 73
2
 44
0.9
  1
BASIS
 40
3.5
 41
20.25
  0
LINE
  5
26E
100
AcDbEntity
  8
S-KOORDINATENSYSTEM
100
AcDbLine
 62
7
420
16724787
  6
CONTINUOUS
 10
601.4095711597
 20
149.8870781898
 30
0.0
 11
589.0895711597
 21
149.8870781898
 31
0.0
  0
SOLID
  5
26F
100
AcDbEntity
  8
S-KOORDINATENSYSTEM
100
AcDbTrace
 62
7
420
16724787
  6
CONTINUOUS
 10
601.4095711597
 20
149.8870781898
 30
0.0
 11
597.9095711597
 21
149.4370781898
 31
0.0
 12
597.9095711597
 22
150.3370781898
 32
0.0
 13
597.9095711597
 23
150.3370781898
 33
0.0
  0
LINE
  5
270
100
AcDbEntity
  8
S-KOORDINATENSYSTEM
100
AcDbLine
 62
7
420
3407871
  6
CONTINUOUS
 10
589.0895711597
 20
137.5670781898
 30
0.0
 11
589.0895711597
 21
149.8870781898
 31
0.0
  0
SOLID
  5
271
100
AcDbEntity
  8
S-KOORDINATENSYSTEM
100
AcDbTrace
 62
7
420
3407871
  6
CONTINUOUS
 10
589.0895711597
 20
137.5670781898
 30
0.0
 11
588.6395711597
 21
141.0670781898
 31
0.0
 12
589.5395711597
 22
141.0670781898
 32
0.0
 13
589.5395711597
 23
141.0670781898
 33
0.0
  0
MTEXT
  5
272
100
AcDbEntity
  8
S-KOORDINATENSYSTEM
100
AcDbMText
 62
7
420
16724787
  6
CONTINUOUS
  7
STANDARD
 71
1
 72
1
 10
602.1135711597
 20
152.9776853327
 30
0.0
 11
1.0
 21
0.0
 31
0.0
 73
2
 44
0.9
  1
X
 40
2.3866071429
 41
3.068494898
  0
MTEXT
  5
273
100
AcDbEntity
  8
S-KOORDINATENSYSTEM
100
AcDbMText
 62
7
420
3407667
  6
CONTINUOUS
  7
STANDARD
 71
1
 72
1
 10
589.7935711597
 20
152.9776853327
 30
0.0
 11
1.0
 21
0.0
 31
0.0
 73
2
 44
0.9
  1
Y
 40
2.3866071429
 41
3.068494898
  0
MTEXT
  5
274
100
AcDbEntity
  8
S-KOORDINATENSYSTEM
100
AcDbMText
 62
7
420
3407871
  6
CONTINUOUS
  7
STANDARD
 71
1
 72
1
 10
589.7935711597
 20
136.8630781898
 30
0.0
 11
1.0
 21
0.0
 31
0.0
 73
2
 44
0.9
  1
Z
 40
2.3866071429
 41
2.8127869898
  0
MTEXT
  5
275
100
AcDbEntity
  8
S-KOORDINATENSYSTEM
100
AcDbMText
 62
7
  6
CONTINUOUS
  7
STANDARD
 71
1
 72
1
 10
574.8855711597
 20
149.1830781898
 30
0.0
 11
1.0
 21
0.0
 31
0.0
 73
2
 44
0.9
  1
BASIS
 40
3.5
 41
20.25
  0
MTEXT
  5
276
100
AcDbEntity
  8
_NOTIZEN
100
AcDbMText
 62
2
  6
CONTINUOUS
  7
STANDARD
 71
2
 72
1
 10
311.8206864383
 20
303.8770099587
 30
0.0
 11
1.0
 21
0.0
 31
0.0
 73
2
 44
0.9
  1
1:2
 40
3.5
 41
9.0
  0
MTEXT
  5
277
100
AcDbEntity
  8
_NOTIZEN
100
AcDbMText
 62
2
  6
CONTINUOUS
  7
STANDARD
 71
2
 72
1
 10
563.5143118173
 20
193.4831967414
 30
0.0
 11
1.0
 21
0.0
 31
0.0
 73
2
 44
0.9
  1
1:1
 40
3.5
 41
7.875
  0
MTEXT
  5
278
100
AcDbEntity
  8
_NOTIZEN
100
AcDbMText
 62
2
  6
CONTINUOUS
  7
STANDARD
 71
2
 72
1
 10
390.5957327667
 20
199.2297007499
 30
0.0
 11
1.0
 21
0.0
 31
0.0
 73
2
 44
0.9
  1
1:1
 40
3.5
 41
7.875
  0
MTEXT
  5
279
100
AcDbEntity
  8
_NOTIZEN
100
AcDbMText
 62
2
  6
CONTINUOUS
  7
STANDARD
 71
2
 72
1
 10
392.0969461775
 20
133.3671823578
 30
0.0
 11
1.0
 21
0.0
 31
0.0
 73
2
 44
0.9
  1
1:1
 40
3.5
 41
7.875
  0
MTEXT
  5
27A
100
AcDbEntity
  8
_NOTIZEN
100
AcDbMText
 62
2
  6
CONTINUOUS
  7
STANDARD
 71
2
 72
1
 10
326.6665405955
 20
70.2174502699
 30
0.0
 11
1.0
 21
0.0
 31
0.0
 73
2
 44
0.9
  1
1:1
 40
3.5
 41
7.875
  0
MTEXT
  5
27B
100
AcDbEntity
  8
_NOTIZEN
100
AcDbMText
 62
2
  6
CONTINUOUS
  7
STANDARD
 71
2
 72
1
 10
412.0743795785
 20
41.7957573409
 30
0.0
 11
1.0
 21
0.0
 31
0.0
 73
2
 44
0.9
  1
1:1
 40
3.5
 41
7.875
  0
MTEXT
  5
27C
100
AcDbEntity
  8
_NOTIZEN
100
AcDbMText
 62
2
  6
CONTINUOUS
  7
STANDARD
 71
2
 72
1
 10
492.8045660546
 20
260.3857391143
 30
0.0
 11
1.0
 21
0.0
 31
0.0
 73
2
 44
0.9
  1
1:1
 40
3.5
 41
7.875
  0
MTEXT
  5
27D
100
AcDbEntity
  8
_NOTIZEN
100
AcDbMText
 62
2
  6
CONTINUOUS
  7
STANDARD
 71
2
 72
1
 10
667.9899474106
 20
258.7967560634
 30
0.0
 11
1.0
 21
0.0
 31
0.0
 73
2
 44
0.9
  1
1:1
 40
3.5
 41
7.875
  0
MTEXT
  5
27E
100
AcDbEntity
  8
_NOTIZEN
100
AcDbMText
 62
2
  6
CONTINUOUS
  7
STANDARD
 71
2
 72
1
 10
797.2549022386
 20
199.3808679568
 30
0.0
 11
1.0
 21
0.0
 31
0.0
 73
2
 44
0.9
  1
1:1
 40
3.5
 41
7.875
  0
MTEXT
  5
27F
100
AcDbEntity
  8
_NOTIZEN
100
AcDbMText
 62
2
  6
CONTINUOUS
  7
STANDARD
 71
2
 72
1
 10
527.4477879785
 20
69.4496239941
 30
0.0
 11
1.0
 21
0.0
 31
0.0
 73
2
 44
0.9
  1
1:1
 40
3.5
 41
7.875
  0
MTEXT
  5
280
100
AcDbEntity
  8
_NOTIZEN
100
AcDbMText
 62
2
  6
CONTINUOUS
  7
STANDARD
 71
2
 72
1
 10
415.5187511753
 20
16.9714802697
 30
0.0
 11
1.0
 21
0.0
 31
0.0
 73
2
 44
0.9
  1
1:1
 40
3.5
 41
7.875
  0
LINE
  5
281
100
AcDbEntity
  8
0
100
AcDbLine
 62
7
  6
CONTINUOUS
 10
222.3206864383
 20
204.5327661792
 30
0.0
 11
222.3206864383
 21
296.5327661792
 31
0.0
  0
LINE
  5
282
100
AcDbEntity
  8
0
100
AcDbLine
 62
7
  6
CONTINUOUS
 10
397.8206864383
 20
201.0327661792
 30
0.0
 11
225.8206864383
 21
201.0327661792
 31
0.0
  0
LINE
  5
283
100
AcDbEntity
  8
S-EBENEN
100
AcDbLine
 62
7
  6
CONTINUOUS
 10
311.2926864383
 20
301.0555595357
 30
0.0
 11
311.2926864383
 21
200.0099728228
 31
0.0
  0
LINE
  5
284
100
AcDbEntity
  8
S-EBENEN
100
AcDbLine
 62
9
  6
CONTINUOUS
 10
312.3486864383
 20
301.0555595357
 30
0.0
 11
312.3486864383
 21
200.0099728228
 31
0.0
  0
LINE
  5
285
100
AcDbEntity
  8
S-EBENEN
100
AcDbLine
 62
9
  6
CONTINUOUS
 10
402.3434797948
 20
250.0047661792
 30
0.0
 11
221.2978930819
 21
250.0047661792
 31
0.0
  0
LINE
  5
286
100
AcDbEntity
  8
S-EBENEN
100
AcDbLine
 62
7
  6
CONTINUOUS
 10
402.3434797948
 20
251.0607661792
 30
0.0
 11
221.2978930819
 21
251.0607661792
 31
0.0
  0
LINE
  5
287
100
AcDbEntity
  8
0
100
AcDbLine
 62
7
  6
CONTINUOUS
 10
225.8206864383
 20
300.0327661792
 30
0.0
 11
397.8206864383
 21
300.0327661792
 31
0.0
  0
LINE
  5
288
100
AcDbEntity
  8
0
100
AcDbLine
 62
7
  6
CONTINUOUS
 10
401.3206864383
 20
296.5327661792
 30
0.0
 11
401.3206864383
 21
204.5327661792
 31
0.0
  0
LINE
  5
289
100
AcDbEntity
  8
S-EBENEN
100
AcDbLine
 62
9
  6
CONTINUOUS
 10
562.9863118173
 20
186.5299448682
 30
0.0
 11
562.9863118173
 21
179.4262048351
 31
0.0
  0
LINE
  5
28A
100
AcDbEntity
  8
S-EBENEN
100
AcDbLine
 62
9
  6
CONTINUOUS
 10
567.0882531209
 20
182.4500748516
 30
0.0
 11
559.9403705138
 21
182.4500748516
 31
0.0
  0
LINE
  5
28B
100
AcDbEntity
  8
S-EBENEN
100
AcDbLine
 62
7
  6
CONTINUOUS
 10
564.0423118173
 20
186.5299448682
 30
0.0
 11
564.0423118173
 21
179.4262048351
 31
0.0
  0
LINE
  5
28C
100
AcDbEntity
  8
S-EBENEN
100
AcDbLine
 62
7
  6
CONTINUOUS
 10
567.0882531209
 20
183.5060748516
 30
0.0
 11
559.9403705138
 21
183.5060748516
 31
0.0
  0
LINE
  5
28D
100
AcDbEntity
  8
0
100
AcDbLine
 62
7
  6
CONTINUOUS
 10
226.5957327667
 20
137.2245788601
 30
0.0
 11
226.5957327667
 21
192.2245788601
 31
0.0
  0
LINE
  5
28E
100
AcDbEntity
  8
0
100
AcDbLine
 62
7
  6
CONTINUOUS
 10
239.4957327667
 20
181.2245788601
 30
0.0
 11
239.4957327667
 21
187.4245788601
 31
0.0
  0
LINE
  5
28F
100
AcDbEntity
  8
0
100
AcDbLine
 62
7
  6
CONTINUOUS
 10
241.6957327667
 20
181.2245788601
 30
0.0
 11
241.6957327667
 21
187.4245788601
 31
0.0
  0
LINE
  5
290
100
AcDbEntity
  8
0
100
AcDbLine
 62
7
  6
CONTINUOUS
 10
249.4957327667
 20
181.2245788601
 30
0.0
 11
249.4957327667
 21
187.4245788601
 31
0.0
  0
LINE
  5
291
100
AcDbEntity
  8
0
100
AcDbLine
 62
7
  6
CONTINUOUS
 10
251.6957327667
 20
181.2245788601
 30
0.0
 11
251.6957327667
 21
187.4245788601
 31
0.0
  0
LINE
  5
292
100
AcDbEntity
  8
0
100
AcDbLine
 62
7
  6
CONTINUOUS
 10
259.4957327667
 20
181.2245788601
 30
0.0
 11
259.4957327667
 21
187.4245788601
 31
0.0
  0
LINE
  5
293
100
AcDbEntity
  8
0
100
AcDbLine
 62
7
  6
CONTINUOUS
 10
261.6957327667
 20
181.2245788601
 30
0.0
 11
261.6957327667
 21
187.4245788601
 31
0.0
  0
LINE
  5
294
100
AcDbEntity
  8
0
100
AcDbLine
 62
7
  6
CONTINUOUS
 10
269.4957327667
 20
181.2245788601
 30
0.0
 11
269.4957327667
 21
187.4245788601
 31
0.0
  0
LINE
  5
295
100
AcDbEntity
  8
0
100
AcDbLine
 62
7
  6
CONTINUOUS
 10
271.6957327667
 20
181.2245788601
 30
0.0
 11
271.6957327667
 21
187.4245788601
 31
0.0
  0
LINE
  5
296
100
AcDbEntity
  8
0
100
AcDbLine
 62
7
  6
CONTINUOUS
 10
279.4957327667
 20
181.2245788601
 30
0.0
 11
279.4957327667
 21
187.4245788601
 31
0.0
  0
LINE
  5
297
100
AcDbEntity
  8
0
100
AcDbLine
 62
7
  6
CONTINUOUS
 10
281.6957327667
 20
181.2245788601
 30
0.0
 11
281.6957327667
 21
187.4245788601
 31
0.0
  0
LINE
  5
298
100
AcDbEntity
  8
0
100
AcDbLine
 62
7
  6
CONTINUOUS
 10
289.4957327667
 20
181.2245788601
 30
0.0
 11
289.4957327667
 21
187.4245788601
 31
0.0
  0
LINE
  5
299
100
AcDbEntity
  8
0
100
AcDbLine
 62
7
  6
CONTINUOUS
 10
291.6957327667
 20
181.2245788601
 30
0.0
 11
291.6957327667
 21
187.4245788601
 31
0.0
  0
LINE
  5
29A
100
AcDbEntity
  8
0
100
AcDbLine
 62
7
  6
CONTINUOUS
 10
299.4957327667
 20
181.2245788601
 30
0.0
 11
299.4957327667
 21
187.4245788601
 31
0.0
  0
LINE
  5
29B
100
AcDbEntity
  8
0
100
AcDbLine
 62
7
  6
CONTINUOUS
 10
301.6957327667
 20
181.2245788601
 30
0.0
 11
301.6957327667
 21
187.4245788601
 31
0.0
  0
LINE
  5
29C
100
AcDbEntity
  8
0
100
AcDbLine
 62
7
  6
CONTINUOUS
 10
309.4957327667
 20
181.2245788601
 30
0.0
 11
309.4957327667
 21
187.4245788601
 31
0.0
  0
LINE
  5
29D
100
AcDbEntity
  8
0
100
AcDbLine
 62
7
  6
CONTINUOUS
 10
311.6957327667
 20
181.2245788601
 30
0.0
 11
311.6957327667
 21
187.4245788601
 31
0.0
  0
LINE
  5
29E
100
AcDbEntity
  8
0
100
AcDbLine
 62
7
  6
CONTINUOUS
 10
319.4957327667
 20
181.2245788601
 30
0.0
 11
319.4957327667
 21
187.4245788601
 31
0.0
  0
LINE
  5
29F
100
AcDbEntity
  8
0
100
AcDbLine
 62
7
  6
CONTINUOUS
 10
321.6957327667
 20
181.2245788601
 30
0.0
 11
321.6957327667
 21
187.4245788601
 31
0.0
  0
LINE
  5
2A0
100
AcDbEntity
  8
0
100
AcDbLine
 62
7
  6
CONTINUOUS
 10
329.4957327667
 20
181.2245788601
 30
0.0
 11
329.4957327667
 21
187.4245788601
 31
0.0
  0
LINE
  5
2A1
100
AcDbEntity
  8
0
100
AcDbLine
 62
7
  6
CONTINUOUS
 10
331.6957327667
 20
181.2245788601
 30
0.0
 11
331.6957327667
 21
187.4245788601
 31
0.0
  0
LINE
  5
2A2
100
AcDbEntity
  8
0
100
AcDbLine
 62
7
  6
CONTINUOUS
 10
339.4957327667
 20
181.2245788601
 30
0.0
 11
339.4957327667
 21
187.4245788601
 31
0.0
  0
LINE
  5
2A3
100
AcDbEntity
  8
0
100
AcDbLine
 62
7
  6
CONTINUOUS
 10
341.6957327667
 20
181.2245788601
 30
0.0
 11
341.6957327667
 21
187.4245788601
 31
0.0
  0
LINE
  5
2A4
100
AcDbEntity
  8
0
100
AcDbLine
 62
7
  6
CONTINUOUS
 10
349.4957327667
 20
181.2245788601
 30
0.0
 11
349.4957327667
 21
187.4245788601
 31
0.0
  0
LINE
  5
2A5
100
AcDbEntity
  8
0
100
AcDbLine
 62
7
  6
CONTINUOUS
 10
351.6957327667
 20
181.2245788601
 30
0.0
 11
351.6957327667
 21
187.4245788601
 31
0.0
  0
LINE
  5
2A6
100
AcDbEntity
  8
0
100
AcDbLine
 62
7
  6
CONTINUOUS
 10
359.4957327667
 20
181.2245788601
 30
0.0
 11
359.4957327667
 21
187.4245788601
 31
0.0
  0
LINE
  5
2A7
100
AcDbEntity
  8
0
100
AcDbLine
 62
7
  6
CONTINUOUS
 10
361.6957327667
 20
181.2245788601
 30
0.0
 11
361.6957327667
 21
187.4245788601
 31
0.0
  0
LINE
  5
2A8
100
AcDbEntity
  8
0
100
AcDbLine
 62
7
  6
CONTINUOUS
 10
369.4957327667
 20
181.2245788601
 30
0.0
 11
369.4957327667
 21
187.4245788601
 31
0.0
  0
LINE
  5
2A9
100
AcDbEntity
  8
0
100
AcDbLine
 62
7
  6
CONTINUOUS
 10
554.5957327667
 20
137.2245788601
 30
0.0
 11
226.5957327667
 21
137.2245788601
 31
0.0
  0
LINE
  5
2AA
100
AcDbEntity
  8
0
100
AcDbLine
 62
7
  6
CONTINUOUS
 10
371.6957327667
 20
181.2245788601
 30
0.0
 11
371.6957327667
 21
187.4245788601
 31
0.0
  0
LINE
  5
2AB
100
AcDbEntity
  8
0
100
AcDbLine
 62
7
  6
CONTINUOUS
 10
379.4957327667
 20
181.2245788601
 30
0.0
 11
379.4957327667
 21
187.4245788601
 31
0.0
  0
LINE
  5
2AC
100
AcDbEntity
  8
0
100
AcDbLine
 62
7
  6
CONTINUOUS
 10
381.6957327667
 20
181.2245788601
 30
0.0
 11
381.6957327667
 21
187.4245788601
 31
0.0
  0
LINE
  5
2AD
100
AcDbEntity
  8
0
100
AcDbLine
 62
7
  6
CONTINUOUS
 10
389.4957327667
 20
181.2245788601
 30
0.0
 11
389.4957327667
 21
187.4245788601
 31
0.0
  0
LINE
  5
2AE
100
AcDbEntity
  8
S-EBENEN
100
AcDbLine
 62
7
  6
CONTINUOUS
 10
390.0677327667
 20
193.887543081
 30
0.0
 11
390.0677327667
 21
135.5616146392
 31
0.0
  0
LINE
  5
2AF
100
AcDbEntity
  8
S-EBENEN
100
AcDbLine
 62
9
  6
CONTINUOUS
 10
391.1237327667
 20
193.887543081
 30
0.0
 11
391.1237327667
 21
135.5616146392
 31
0.0
  0
LINE
  5
2B0
100
AcDbEntity
  8
0
100
AcDbLine
 62
7
  6
CONTINUOUS
 10
391.6957327667
 20
181.2245788601
 30
0.0
 11
391.6957327667
 21
187.4245788601
 31
0.0
  0
LINE
  5
2B1
100
AcDbEntity
  8
S-EBENEN
100
AcDbLine
 62
9
  6
CONTINUOUS
 10
556.2586969876
 20
164.1965788601
 30
0.0
 11
224.9327685458
 21
164.1965788601
 31
0.0
  0
LINE
  5
2B2
100
AcDbEntity
  8
S-EBENEN
100
AcDbLine
 62
7
  6
CONTINUOUS
 10
556.2586969876
 20
165.2525788601
 30
0.0
 11
224.9327685458
 21
165.2525788601
 31
0.0
  0
LINE
  5
2B3
100
AcDbEntity
  8
0
100
AcDbLine
 62
7
  6
CONTINUOUS
 10
399.4957327667
 20
181.2245788601
 30
0.0
 11
399.4957327667
 21
187.4245788601
 31
0.0
  0
LINE
  5
2B4
100
AcDbEntity
  8
0
100
AcDbLine
 62
7
  6
CONTINUOUS
 10
401.6957327667
 20
181.2245788601
 30
0.0
 11
401.6957327667
 21
187.4245788601
 31
0.0
  0
LINE
  5
2B5
100
AcDbEntity
  8
0
100
AcDbLine
 62
7
  6
CONTINUOUS
 10
409.4957327667
 20
181.2245788601
 30
0.0
 11
409.4957327667
 21
187.4245788601
 31
0.0
  0
LINE
  5
2B6
100
AcDbEntity
  8
0
100
AcDbLine
 62
7
  6
CONTINUOUS
 10
411.6957327667
 20
181.2245788601
 30
0.0
 11
411.6957327667
 21
187.4245788601
 31
0.0
  0
LINE
  5
2B7
100
AcDbEntity
  8
0
100
AcDbLine
 62
7
  6
CONTINUOUS
 10
541.6957327667
 20
181.2245788601
 30
0.0
 11
539.4957327667
 21
181.2245788601
 31
0.0
  0
LINE
  5
2B8
100
AcDbEntity
  8
0
100
AcDbLine
 62
7
  6
CONTINUOUS
 10
531.6957327667
 20
181.2245788601
 30
0.0
 11
529.4957327667
 21
181.2245788601
 31
0.0
  0
LINE
  5
2B9
100
AcDbEntity
  8
0
100
AcDbLine
 62
7
  6
CONTINUOUS
 10
521.6957327667
 20
181.2245788601
 30
0.0
 11
519.4957327667
 21
181.2245788601
 31
0.0
  0
LINE
  5
2BA
100
AcDbEntity
  8
0
100
AcDbLine
 62
7
  6
CONTINUOUS
 10
511.6957327667
 20
181.2245788601
 30
0.0
 11
509.4957327667
 21
181.2245788601
 31
0.0
  0
LINE
  5
2BB
100
AcDbEntity
  8
0
100
AcDbLine
 62
7
  6
CONTINUOUS
 10
501.6957327667
 20
181.2245788601
 30
0.0
 11
499.4957327667
 21
181.2245788601
 31
0.0
  0
LINE
  5
2BC
100
AcDbEntity
  8
0
100
AcDbLine
 62
7
  6
CONTINUOUS
 10
491.6957327667
 20
181.2245788601
 30
0.0
 11
489.4957327667
 21
181.2245788601
 31
0.0
  0
LINE
  5
2BD
100
AcDbEntity
  8
0
100
AcDbLine
 62
7
  6
CONTINUOUS
 10
481.6957327667
 20
181.2245788601
 30
0.0
 11
479.4957327667
 21
181.2245788601
 31
0.0
  0
LINE
  5
2BE
100
AcDbEntity
  8
0
100
AcDbLine
 62
7
  6
CONTINUOUS
 10
471.6957327667
 20
181.2245788601
 30
0.0
 11
469.4957327667
 21
181.2245788601
 31
0.0
  0
LINE
  5
2BF
100
AcDbEntity
  8
0
100
AcDbLine
 62
7
  6
CONTINUOUS
 10
461.6957327667
 20
181.2245788601
 30
0.0
 11
459.4957327667
 21
181.2245788601
 31
0.0
  0
LINE
  5
2C0
100
AcDbEntity
  8
0
100
AcDbLine
 62
7
  6
CONTINUOUS
 10
451.6957327667
 20
181.2245788601
 30
0.0
 11
449.4957327667
 21
181.2245788601
 31
0.0
  0
LINE
  5
2C1
100
AcDbEntity
  8
0
100
AcDbLine
 62
7
  6
CONTINUOUS
 10
441.6957327667
 20
181.2245788601
 30
0.0
 11
439.4957327667
 21
181.2245788601
 31
0.0
  0
LINE
  5
2C2
100
AcDbEntity
  8
0
100
AcDbLine
 62
7
  6
CONTINUOUS
 10
431.6957327667
 20
181.2245788601
 30
0.0
 11
429.4957327667
 21
181.2245788601
 31
0.0
  0
LINE
  5
2C3
100
AcDbEntity
  8
0
100
AcDbLine
 62
7
  6
CONTINUOUS
 10
421.6957327667
 20
181.2245788601
 30
0.0
 11
419.4957327667
 21
181.2245788601
 31
0.0
  0
LINE
  5
2C4
100
AcDbEntity
  8
0
100
AcDbLine
 62
7
  6
CONTINUOUS
 10
411.6957327667
 20
181.2245788601
 30
0.0
 11
409.4957327667
 21
181.2245788601
 31
0.0
  0
LINE
  5
2C5
100
AcDbEntity
  8
0
100
AcDbLine
 62
7
  6
CONTINUOUS
 10
401.6957327667
 20
181.2245788601
 30
0.0
 11
399.4957327667
 21
181.2245788601
 31
0.0
  0
LINE
  5
2C6
100
AcDbEntity
  8
0
100
AcDbLine
 62
7
  6
CONTINUOUS
 10
391.6957327667
 20
181.2245788601
 30
0.0
 11
389.4957327667
 21
181.2245788601
 31
0.0
  0
LINE
  5
2C7
100
AcDbEntity
  8
0
100
AcDbLine
 62
7
  6
CONTINUOUS
 10
381.6957327667
 20
181.2245788601
 30
0.0
 11
379.4957327667
 21
181.2245788601
 31
0.0
  0
LINE
  5
2C8
100
AcDbEntity
  8
0
100
AcDbLine
 62
7
  6
CONTINUOUS
 10
371.6957327667
 20
181.2245788601
 30
0.0
 11
369.4957327667
 21
181.2245788601
 31
0.0
  0
LINE
  5
2C9
100
AcDbEntity
  8
0
100
AcDbLine
 62
7
  6
CONTINUOUS
 10
361.6957327667
 20
181.2245788601
 30
0.0
 11
359.4957327667
 21
181.2245788601
 31
0.0
  0
LINE
  5
2CA
100
AcDbEntity
  8
0
100
AcDbLine
 62
7
  6
CONTINUOUS
 10
351.6957327667
 20
181.2245788601
 30
0.0
 11
349.4957327667
 21
181.2245788601
 31
0.0
  0
LINE
  5
2CB
100
AcDbEntity
  8
0
100
AcDbLine
 62
7
  6
CONTINUOUS
 10
341.6957327667
 20
181.2245788601
 30
0.0
 11
339.4957327667
 21
181.2245788601
 31
0.0
  0
LINE
  5
2CC
100
AcDbEntity
  8
0
100
AcDbLine
 62
7
  6
CONTINUOUS
 10
331.6957327667
 20
181.2245788601
 30
0.0
 11
329.4957327667
 21
181.2245788601
 31
0.0
  0
LINE
  5
2CD
100
AcDbEntity
  8
0
100
AcDbLine
 62
7
  6
CONTINUOUS
 10
321.6957327667
 20
181.2245788601
 30
0.0
 11
319.4957327667
 21
181.2245788601
 31
0.0
  0
LINE
  5
2CE
100
AcDbEntity
  8
0
100
AcDbLine
 62
7
  6
CONTINUOUS
 10
311.6957327667
 20
181.2245788601
 30
0.0
 11
309.4957327667
 21
181.2245788601
 31
0.0
  0
LINE
  5
2CF
100
AcDbEntity
  8
0
100
AcDbLine
 62
7
  6
CONTINUOUS
 10
301.6957327667
 20
181.2245788601
 30
0.0
 11
299.4957327667
 21
181.2245788601
 31
0.0
  0
LINE
  5
2D0
100
AcDbEntity
  8
0
100
AcDbLine
 62
7
  6
CONTINUOUS
 10
291.6957327667
 20
181.2245788601
 30
0.0
 11
289.4957327667
 21
181.2245788601
 31
0.0
  0
LINE
  5
2D1
100
AcDbEntity
  8
0
100
AcDbLine
 62
7
  6
CONTINUOUS
 10
281.6957327667
 20
181.2245788601
 30
0.0
 11
279.4957327667
 21
181.2245788601
 31
0.0
  0
LINE
  5
2D2
100
AcDbEntity
  8
0
100
AcDbLine
 62
7
  6
CONTINUOUS
 10
271.6957327667
 20
181.2245788601
 30
0.0
 11
269.4957327667
 21
181.2245788601
 31
0.0
  0
LINE
  5
2D3
100
AcDbEntity
  8
0
100
AcDbLine
 62
7
  6
CONTINUOUS
 10
261.6957327667
 20
181.2245788601
 30
0.0
 11
259.4957327667
 21
181.2245788601
 31
0.0
  0
LINE
  5
2D4
100
AcDbEntity
  8
0
100
AcDbLine
 62
7
  6
CONTINUOUS
 10
251.6957327667
 20
181.2245788601
 30
0.0
 11
249.4957327667
 21
181.2245788601
 31
0.0
  0
LINE
  5
2D5
100
AcDbEntity
  8
0
100
AcDbLine
 62
7
  6
CONTINUOUS
 10
241.6957327667
 20
181.2245788601
 30
0.0
 11
239.4957327667
 21
181.2245788601
 31
0.0
  0
LINE
  5
2D6
100
AcDbEntity
  8
0
100
AcDbLine
 62
7
  6
CONTINUOUS
 10
239.4957327667
 20
187.4245788601
 30
0.0
 11
241.6957327667
 21
187.4245788601
 31
0.0
  0
LINE
  5
2D7
100
AcDbEntity
  8
0
100
AcDbLine
 62
7
  6
CONTINUOUS
 10
249.4957327667
 20
187.4245788601
 30
0.0
 11
251.6957327667
 21
187.4245788601
 31
0.0
  0
LINE
  5
2D8
100
AcDbEntity
  8
0
100
AcDbLine
 62
7
  6
CONTINUOUS
 10
259.4957327667
 20
187.4245788601
 30
0.0
 11
261.6957327667
 21
187.4245788601
 31
0.0
  0
LINE
  5
2D9
100
AcDbEntity
  8
0
100
AcDbLine
 62
7
  6
CONTINUOUS
 10
269.4957327667
 20
187.4245788601
 30
0.0
 11
271.6957327667
 21
187.4245788601
 31
0.0
  0
LINE
  5
2DA
100
AcDbEntity
  8
0
100
AcDbLine
 62
7
  6
CONTINUOUS
 10
279.4957327667
 20
187.4245788601
 30
0.0
 11
281.6957327667
 21
187.4245788601
 31
0.0
  0
LINE
  5
2DB
100
AcDbEntity
  8
0
100
AcDbLine
 62
7
  6
CONTINUOUS
 10
289.4957327667
 20
187.4245788601
 30
0.0
 11
291.6957327667
 21
187.4245788601
 31
0.0
  0
LINE
  5
2DC
100
AcDbEntity
  8
0
100
AcDbLine
 62
7
  6
CONTINUOUS
 10
299.4957327667
 20
187.4245788601
 30
0.0
 11
301.6957327667
 21
187.4245788601
 31
0.0
  0
LINE
  5
2DD
100
AcDbEntity
  8
0
100
AcDbLine
 62
7
  6
CONTINUOUS
 10
309.4957327667
 20
187.4245788601
 30
0.0
 11
311.6957327667
 21
187.4245788601
 31
0.0
  0
LINE
  5
2DE
100
AcDbEntity
  8
0
100
AcDbLine
 62
7
  6
CONTINUOUS
 10
319.4957327667
 20
187.4245788601
 30
0.0
 11
321.6957327667
 21
187.4245788601
 31
0.0
  0
LINE
  5
2DF
100
AcDbEntity
  8
0
100
AcDbLine
 62
7
  6
CONTINUOUS
 10
329.4957327667
 20
187.4245788601
 30
0.0
 11
331.6957327667
 21
187.4245788601
 31
0.0
  0
LINE
  5
2E0
100
AcDbEntity
  8
0
100
AcDbLine
 62
7
  6
CONTINUOUS
 10
339.4957327667
 20
187.4245788601
 30
0.0
 11
341.6957327667
 21
187.4245788601
 31
0.0
  0
LINE
  5
2E1
100
AcDbEntity
  8
0
100
AcDbLine
 62
7
  6
CONTINUOUS
 10
349.4957327667
 20
187.4245788601
 30
0.0
 11
351.6957327667
 21
187.4245788601
 31
0.0
  0
LINE
  5
2E2
100
AcDbEntity
  8
0
100
AcDbLine
 62
7
  6
CONTINUOUS
 10
359.4957327667
 20
187.4245788601
 30
0.0
 11
361.6957327667
 21
187.4245788601
 31
0.0
  0
LINE
  5
2E3
100
AcDbEntity
  8
0
100
AcDbLine
 62
7
  6
CONTINUOUS
 10
369.4957327667
 20
187.4245788601
 30
0.0
 11
371.6957327667
 21
187.4245788601
 31
0.0
  0
LINE
  5
2E4
100
AcDbEntity
  8
0
100
AcDbLine
 62
7
  6
CONTINUOUS
 10
379.4957327667
 20
187.4245788601
 30
0.0
 11
381.6957327667
 21
187.4245788601
 31
0.0
  0
LINE
  5
2E5
100
AcDbEntity
  8
0
100
AcDbLine
 62
7
  6
CONTINUOUS
 10
389.4957327667
 20
187.4245788601
 30
0.0
 11
391.6957327667
 21
187.4245788601
 31
0.0
  0
LINE
  5
2E6
100
AcDbEntity
  8
0
100
AcDbLine
 62
7
  6
CONTINUOUS
 10
399.4957327667
 20
187.4245788601
 30
0.0
 11
401.6957327667
 21
187.4245788601
 31
0.0
  0
LINE
  5
2E7
100
AcDbEntity
  8
0
100
AcDbLine
 62
7
  6
CONTINUOUS
 10
409.4957327667
 20
187.4245788601
 30
0.0
 11
411.6957327667
 21
187.4245788601
 31
0.0
  0
LINE
  5
2E8
100
AcDbEntity
  8
0
100
AcDbLine
 62
7
  6
CONTINUOUS
 10
419.4957327667
 20
187.4245788601
 30
0.0
 11
421.6957327667
 21
187.4245788601
 31
0.0
  0
LINE
  5
2E9
100
AcDbEntity
  8
0
100
AcDbLine
 62
7
  6
CONTINUOUS
 10
429.4957327667
 20
187.4245788601
 30
0.0
 11
431.6957327667
 21
187.4245788601
 31
0.0
  0
LINE
  5
2EA
100
AcDbEntity
  8
0
100
AcDbLine
 62
7
  6
CONTINUOUS
 10
439.4957327667
 20
187.4245788601
 30
0.0
 11
441.6957327667
 21
187.4245788601
 31
0.0
  0
LINE
  5
2EB
100
AcDbEntity
  8
0
100
AcDbLine
 62
7
  6
CONTINUOUS
 10
449.4957327667
 20
187.4245788601
 30
0.0
 11
451.6957327667
 21
187.4245788601
 31
0.0
  0
LINE
  5
2EC
100
AcDbEntity
  8
0
100
AcDbLine
 62
7
  6
CONTINUOUS
 10
459.4957327667
 20
187.4245788601
 30
0.0
 11
461.6957327667
 21
187.4245788601
 31
0.0
  0
LINE
  5
2ED
100
AcDbEntity
  8
0
100
AcDbLine
 62
7
  6
CONTINUOUS
 10
469.4957327667
 20
187.4245788601
 30
0.0
 11
471.6957327667
 21
187.4245788601
 31
0.0
  0
LINE
  5
2EE
100
AcDbEntity
  8
0
100
AcDbLine
 62
7
  6
CONTINUOUS
 10
479.4957327667
 20
187.4245788601
 30
0.0
 11
481.6957327667
 21
187.4245788601
 31
0.0
  0
LINE
  5
2EF
100
AcDbEntity
  8
0
100
AcDbLine
 62
7
  6
CONTINUOUS
 10
489.4957327667
 20
187.4245788601
 30
0.0
 11
491.6957327667
 21
187.4245788601
 31
0.0
  0
LINE
  5
2F0
100
AcDbEntity
  8
0
100
AcDbLine
 62
7
  6
CONTINUOUS
 10
499.4957327667
 20
187.4245788601
 30
0.0
 11
501.6957327667
 21
187.4245788601
 31
0.0
  0
LINE
  5
2F1
100
AcDbEntity
  8
0
100
AcDbLine
 62
7
  6
CONTINUOUS
 10
509.4957327667
 20
187.4245788601
 30
0.0
 11
511.6957327667
 21
187.4245788601
 31
0.0
  0
LINE
  5
2F2
100
AcDbEntity
  8
0
100
AcDbLine
 62
7
  6
CONTINUOUS
 10
519.4957327667
 20
187.4245788601
 30
0.0
 11
521.6957327667
 21
187.4245788601
 31
0.0
  0
LINE
  5
2F3
100
AcDbEntity
  8
0
100
AcDbLine
 62
7
  6
CONTINUOUS
 10
529.4957327667
 20
187.4245788601
 30
0.0
 11
531.6957327667
 21
187.4245788601
 31
0.0
  0
LINE
  5
2F4
100
AcDbEntity
  8
0
100
AcDbLine
 62
7
  6
CONTINUOUS
 10
539.4957327667
 20
187.4245788601
 30
0.0
 11
541.6957327667
 21
187.4245788601
 31
0.0
  0
LINE
  5
2F5
100
AcDbEntity
  8
0
100
AcDbLine
 62
7
  6
CONTINUOUS
 10
419.4957327667
 20
181.2245788601
 30
0.0
 11
419.4957327667
 21
187.4245788601
 31
0.0
  0
LINE
  5
2F6
100
AcDbEntity
  8
0
100
AcDbLine
 62
7
  6
CONTINUOUS
 10
421.6957327667
 20
181.2245788601
 30
0.0
 11
421.6957327667
 21
187.4245788601
 31
0.0
  0
LINE
  5
2F7
100
AcDbEntity
  8
0
100
AcDbLine
 62
7
  6
CONTINUOUS
 10
226.5957327667
 20
192.2245788601
 30
0.0
 11
554.5957327667
 21
192.2245788601
 31
0.0
  0
LINE
  5
2F8
100
AcDbEntity
  8
0
100
AcDbLine
 62
7
  6
CONTINUOUS
 10
429.4957327667
 20
181.2245788601
 30
0.0
 11
429.4957327667
 21
187.4245788601
 31
0.0
  0
LINE
  5
2F9
100
AcDbEntity
  8
0
100
AcDbLine
 62
7
  6
CONTINUOUS
 10
431.6957327667
 20
181.2245788601
 30
0.0
 11
431.6957327667
 21
187.4245788601
 31
0.0
  0
LINE
  5
2FA
100
AcDbEntity
  8
0
100
AcDbLine
 62
7
  6
CONTINUOUS
 10
439.4957327667
 20
181.2245788601
 30
0.0
 11
439.4957327667
 21
187.4245788601
 31
0.0
  0
LINE
  5
2FB
100
AcDbEntity
  8
0
100
AcDbLine
 62
7
  6
CONTINUOUS
 10
441.6957327667
 20
181.2245788601
 30
0.0
 11
441.6957327667
 21
187.4245788601
 31
0.0
  0
LINE
  5
2FC
100
AcDbEntity
  8
0
100
AcDbLine
 62
7
  6
CONTINUOUS
 10
449.4957327667
 20
181.2245788601
 30
0.0
 11
449.4957327667
 21
187.4245788601
 31
0.0
  0
LINE
  5
2FD
100
AcDbEntity
  8
0
100
AcDbLine
 62
7
  6
CONTINUOUS
 10
451.6957327667
 20
181.2245788601
 30
0.0
 11
451.6957327667
 21
187.4245788601
 31
0.0
  0
LINE
  5
2FE
100
AcDbEntity
  8
0
100
AcDbLine
 62
7
  6
CONTINUOUS
 10
459.4957327667
 20
181.2245788601
 30
0.0
 11
459.4957327667
 21
187.4245788601
 31
0.0
  0
LINE
  5
2FF
100
AcDbEntity
  8
0
100
AcDbLine
 62
7
  6
CONTINUOUS
 10
461.6957327667
 20
181.2245788601
 30
0.0
 11
461.6957327667
 21
187.4245788601
 31
0.0
  0
LINE
  5
300
100
AcDbEntity
  8
0
100
AcDbLine
 62
7
  6
CONTINUOUS
 10
469.4957327667
 20
181.2245788601
 30
0.0
 11
469.4957327667
 21
187.4245788601
 31
0.0
  0
LINE
  5
301
100
AcDbEntity
  8
0
100
AcDbLine
 62
7
  6
CONTINUOUS
 10
471.6957327667
 20
181.2245788601
 30
0.0
 11
471.6957327667
 21
187.4245788601
 31
0.0
  0
LINE
  5
302
100
AcDbEntity
  8
0
100
AcDbLine
 62
7
  6
CONTINUOUS
 10
479.4957327667
 20
181.2245788601
 30
0.0
 11
479.4957327667
 21
187.4245788601
 31
0.0
  0
LINE
  5
303
100
AcDbEntity
  8
0
100
AcDbLine
 62
7
  6
CONTINUOUS
 10
481.6957327667
 20
181.2245788601
 30
0.0
 11
481.6957327667
 21
187.4245788601
 31
0.0
  0
LINE
  5
304
100
AcDbEntity
  8
0
100
AcDbLine
 62
7
  6
CONTINUOUS
 10
489.4957327667
 20
181.2245788601
 30
0.0
 11
489.4957327667
 21
187.4245788601
 31
0.0
  0
LINE
  5
305
100
AcDbEntity
  8
0
100
AcDbLine
 62
7
  6
CONTINUOUS
 10
491.6957327667
 20
181.2245788601
 30
0.0
 11
491.6957327667
 21
187.4245788601
 31
0.0
  0
LINE
  5
306
100
AcDbEntity
  8
0
100
AcDbLine
 62
7
  6
CONTINUOUS
 10
499.4957327667
 20
181.2245788601
 30
0.0
 11
499.4957327667
 21
187.4245788601
 31
0.0
  0
LINE
  5
307
100
AcDbEntity
  8
0
100
AcDbLine
 62
7
  6
CONTINUOUS
 10
501.6957327667
 20
181.2245788601
 30
0.0
 11
501.6957327667
 21
187.4245788601
 31
0.0
  0
LINE
  5
308
100
AcDbEntity
  8
0
100
AcDbLine
 62
7
  6
CONTINUOUS
 10
509.4957327667
 20
181.2245788601
 30
0.0
 11
509.4957327667
 21
187.4245788601
 31
0.0
  0
LINE
  5
309
100
AcDbEntity
  8
0
100
AcDbLine
 62
7
  6
CONTINUOUS
 10
511.6957327667
 20
181.2245788601
 30
0.0
 11
511.6957327667
 21
187.4245788601
 31
0.0
  0
LINE
  5
30A
100
AcDbEntity
  8
0
100
AcDbLine
 62
7
  6
CONTINUOUS
 10
519.4957327667
 20
181.2245788601
 30
0.0
 11
519.4957327667
 21
187.4245788601
 31
0.0
  0
LINE
  5
30B
100
AcDbEntity
  8
0
100
AcDbLine
 62
7
  6
CONTINUOUS
 10
521.6957327667
 20
181.2245788601
 30
0.0
 11
521.6957327667
 21
187.4245788601
 31
0.0
  0
LINE
  5
30C
100
AcDbEntity
  8
0
100
AcDbLine
 62
7
  6
CONTINUOUS
 10
529.4957327667
 20
181.2245788601
 30
0.0
 11
529.4957327667
 21
187.4245788601
 31
0.0
  0
LINE
  5
30D
100
AcDbEntity
  8
0
100
AcDbLine
 62
7
  6
CONTINUOUS
 10
531.6957327667
 20
181.2245788601
 30
0.0
 11
531.6957327667
 21
187.4245788601
 31
0.0
  0
LINE
  5
30E
100
AcDbEntity
  8
0
100
AcDbLine
 62
7
  6
CONTINUOUS
 10
539.4957327667
 20
181.2245788601
 30
0.0
 11
539.4957327667
 21
187.4245788601
 31
0.0
  0
LINE
  5
30F
100
AcDbEntity
  8
0
100
AcDbLine
 62
7
  6
CONTINUOUS
 10
541.6957327667
 20
181.2245788601
 30
0.0
 11
541.6957327667
 21
187.4245788601
 31
0.0
  0
LINE
  5
310
100
AcDbEntity
  8
0
100
AcDbLine
 62
7
  6
CONTINUOUS
 10
554.5957327667
 20
192.2245788601
 30
0.0
 11
554.5957327667
 21
137.2245788601
 31
0.0
  0
LINE
  5
311
100
AcDbEntity
  8
0
100
AcDbLine
 62
7
  6
CONTINUOUS
 10
228.0969461775
 20
71.362060468
 30
0.0
 11
228.0969461775
 21
126.362060468
 31
0.0
  0
LINE
  5
312
100
AcDbEntity
  8
0
100
AcDbLine
 62
7
  6
CONTINUOUS
 10
240.9969461775
 20
115.362060468
 30
0.0
 11
240.9969461775
 21
121.562060468
 31
0.0
  0
LINE
  5
313
100
AcDbEntity
  8
0
100
AcDbLine
 62
7
  6
CONTINUOUS
 10
243.1969461775
 20
115.362060468
 30
0.0
 11
243.1969461775
 21
121.562060468
 31
0.0
  0
LINE
  5
314
100
AcDbEntity
  8
0
100
AcDbLine
 62
7
  6
CONTINUOUS
 10
250.9969461775
 20
115.362060468
 30
0.0
 11
250.9969461775
 21
121.562060468
 31
0.0
  0
LINE
  5
315
100
AcDbEntity
  8
0
100
AcDbLine
 62
7
  6
CONTINUOUS
 10
253.1969461775
 20
115.362060468
 30
0.0
 11
253.1969461775
 21
121.562060468
 31
0.0
  0
LINE
  5
316
100
AcDbEntity
  8
0
100
AcDbLine
 62
7
  6
CONTINUOUS
 10
260.9969461775
 20
115.362060468
 30
0.0
 11
260.9969461775
 21
121.562060468
 31
0.0
  0
LINE
  5
317
100
AcDbEntity
  8
0
100
AcDbLine
 62
7
  6
CONTINUOUS
 10
263.1969461775
 20
115.362060468
 30
0.0
 11
263.1969461775
 21
121.562060468
 31
0.0
  0
LINE
  5
318
100
AcDbEntity
  8
0
100
AcDbLine
 62
7
  6
CONTINUOUS
 10
270.9969461775
 20
115.362060468
 30
0.0
 11
270.9969461775
 21
121.562060468
 31
0.0
  0
LINE
  5
319
100
AcDbEntity
  8
0
100
AcDbLine
 62
7
  6
CONTINUOUS
 10
273.1969461775
 20
115.362060468
 30
0.0
 11
273.1969461775
 21
121.562060468
 31
0.0
  0
LINE
  5
31A
100
AcDbEntity
  8
0
100
AcDbLine
 62
7
  6
CONTINUOUS
 10
280.9969461775
 20
115.362060468
 30
0.0
 11
280.9969461775
 21
121.562060468
 31
0.0
  0
LINE
  5
31B
100
AcDbEntity
  8
0
100
AcDbLine
 62
7
  6
CONTINUOUS
 10
283.1969461775
 20
115.362060468
 30
0.0
 11
283.1969461775
 21
121.562060468
 31
0.0
  0
LINE
  5
31C
100
AcDbEntity
  8
0
100
AcDbLine
 62
7
  6
CONTINUOUS
 10
290.9969461775
 20
115.362060468
 30
0.0
 11
290.9969461775
 21
121.562060468
 31
0.0
  0
LINE
  5
31D
100
AcDbEntity
  8
0
100
AcDbLine
 62
7
  6
CONTINUOUS
 10
293.1969461775
 20
115.362060468
 30
0.0
 11
293.1969461775
 21
121.562060468
 31
0.0
  0
LINE
  5
31E
100
AcDbEntity
  8
0
100
AcDbLine
 62
7
  6
CONTINUOUS
 10
300.9969461775
 20
115.362060468
 30
0.0
 11
300.9969461775
 21
121.562060468
 31
0.0
  0
LINE
  5
31F
100
AcDbEntity
  8
0
100
AcDbLine
 62
7
  6
CONTINUOUS
 10
303.1969461775
 20
115.362060468
 30
0.0
 11
303.1969461775
 21
121.562060468
 31
0.0
  0
LINE
  5
320
100
AcDbEntity
  8
0
100
AcDbLine
 62
7
  6
CONTINUOUS
 10
310.9969461775
 20
115.362060468
 30
0.0
 11
310.9969461775
 21
121.562060468
 31
0.0
  0
LINE
  5
321
100
AcDbEntity
  8
0
100
AcDbLine
 62
7
  6
CONTINUOUS
 10
313.1969461775
 20
115.362060468
 30
0.0
 11
313.1969461775
 21
121.562060468
 31
0.0
  0
LINE
  5
322
100
AcDbEntity
  8
0
100
AcDbLine
 62
7
  6
CONTINUOUS
 10
320.9969461775
 20
115.362060468
 30
0.0
 11
320.9969461775
 21
121.562060468
 31
0.0
  0
LINE
  5
323
100
AcDbEntity
  8
0
100
AcDbLine
 62
7
  6
CONTINUOUS
 10
323.1969461775
 20
115.362060468
 30
0.0
 11
323.1969461775
 21
121.562060468
 31
0.0
  0
LINE
  5
324
100
AcDbEntity
  8
0
100
AcDbLine
 62
7
  6
CONTINUOUS
 10
330.9969461775
 20
115.362060468
 30
0.0
 11
330.9969461775
 21
121.562060468
 31
0.0
  0
LINE
  5
325
100
AcDbEntity
  8
0
100
AcDbLine
 62
7
  6
CONTINUOUS
 10
333.1969461775
 20
115.362060468
 30
0.0
 11
333.1969461775
 21
121.562060468
 31
0.0
  0
LINE
  5
326
100
AcDbEntity
  8
0
100
AcDbLine
 62
7
  6
CONTINUOUS
 10
340.9969461775
 20
115.362060468
 30
0.0
 11
340.9969461775
 21
121.562060468
 31
0.0
  0
LINE
  5
327
100
AcDbEntity
  8
0
100
AcDbLine
 62
7
  6
CONTINUOUS
 10
343.1969461775
 20
115.362060468
 30
0.0
 11
343.1969461775
 21
121.562060468
 31
0.0
  0
LINE
  5
328
100
AcDbEntity
  8
0
100
AcDbLine
 62
7
  6
CONTINUOUS
 10
345.1939461775
 20
91.862060468
 30
0.0
 11
345.1939461775
 21
75.862060468
 31
0.0
  0
LINE
  5
329
100
AcDbEntity
  8
0
100
AcDbLine
 62
7
  6
CONTINUOUS
 10
350.9969461775
 20
115.362060468
 30
0.0
 11
350.9969461775
 21
121.562060468
 31
0.0
  0
LINE
  5
32A
100
AcDbEntity
  8
0
100
AcDbLine
 62
7
  6
CONTINUOUS
 10
353.1969461775
 20
115.362060468
 30
0.0
 11
353.1969461775
 21
121.562060468
 31
0.0
  0
LINE
  5
32B
100
AcDbEntity
  8
0
100
AcDbLine
 62
7
  6
CONTINUOUS
 10
360.9969461775
 20
115.362060468
 30
0.0
 11
360.9969461775
 21
121.562060468
 31
0.0
  0
LINE
  5
32C
100
AcDbEntity
  8
0
100
AcDbLine
 62
7
  6
CONTINUOUS
 10
363.1969461775
 20
115.362060468
 30
0.0
 11
363.1969461775
 21
121.562060468
 31
0.0
  0
LINE
  5
32D
100
AcDbEntity
  8
0
100
AcDbLine
 62
7
  6
CONTINUOUS
 10
366.1939461775
 20
75.862060468
 30
0.0
 11
366.1939461775
 21
91.862060468
 31
0.0
  0
LINE
  5
32E
100
AcDbEntity
  8
0
100
AcDbLine
 62
7
  6
CONTINUOUS
 10
370.9969461775
 20
115.362060468
 30
0.0
 11
370.9969461775
 21
121.562060468
 31
0.0
  0
LINE
  5
32F
100
AcDbEntity
  8
0
100
AcDbLine
 62
7
  6
CONTINUOUS
 10
556.0969461775
 20
71.362060468
 30
0.0
 11
228.0969461775
 21
71.362060468
 31
0.0
  0
LINE
  5
330
100
AcDbEntity
  8
0
100
AcDbLine
 62
7
  6
CONTINUOUS
 10
345.1939461775
 20
75.862060468
 30
0.0
 11
366.1939461775
 21
75.862060468
 31
0.0
  0
LINE
  5
331
100
AcDbEntity
  8
0
100
AcDbLine
 62
7
  6
CONTINUOUS
 10
373.1969461775
 20
115.362060468
 30
0.0
 11
373.1969461775
 21
121.562060468
 31
0.0
  0
LINE
  5
332
100
AcDbEntity
  8
0
100
AcDbLine
 62
7
  6
CONTINUOUS
 10
380.9969461775
 20
115.362060468
 30
0.0
 11
380.9969461775
 21
121.562060468
 31
0.0
  0
LINE
  5
333
100
AcDbEntity
  8
0
100
AcDbLine
 62
7
  6
CONTINUOUS
 10
383.1969461775
 20
115.362060468
 30
0.0
 11
383.1969461775
 21
121.562060468
 31
0.0
  0
LINE
  5
334
100
AcDbEntity
  8
0
100
AcDbLine
 62
7
  6
CONTINUOUS
 10
390.9969461775
 20
115.362060468
 30
0.0
 11
390.9969461775
 21
121.562060468
 31
0.0
  0
LINE
  5
335
100
AcDbEntity
  8
S-EBENEN
100
AcDbLine
 62
7
  6
CONTINUOUS
 10
391.5689461775
 20
128.0250246889
 30
0.0
 11
391.5689461775
 21
69.6990962471
 31
0.0
  0
LINE
  5
336
100
AcDbEntity
  8
S-EBENEN
100
AcDbLine
 62
9
  6
CONTINUOUS
 10
392.6249461775
 20
128.0250246889
 30
0.0
 11
392.6249461775
 21
69.6990962471
 31
0.0
  0
LINE
  5
337
100
AcDbEntity
  8
0
100
AcDbLine
 62
7
  6
CONTINUOUS
 10
393.1969461775
 20
115.362060468
 30
0.0
 11
393.1969461775
 21
121.562060468
 31
0.0
  0
LINE
  5
338
100
AcDbEntity
  8
0
100
AcDbLine
 62
7
  6
CONTINUOUS
 10
366.1939461775
 20
91.862060468
 30
0.0
 11
345.1939461775
 21
91.862060468
 31
0.0
  0
LINE
  5
339
100
AcDbEntity
  8
S-EBENEN
100
AcDbLine
 62
9
  6
CONTINUOUS
 10
557.7599103984
 20
98.334060468
 30
0.0
 11
226.4339819566
 21
98.334060468
 31
0.0
  0
LINE
  5
33A
100
AcDbEntity
  8
S-EBENEN
100
AcDbLine
 62
7
  6
CONTINUOUS
 10
557.7599103984
 20
99.390060468
 30
0.0
 11
226.4339819566
 21
99.390060468
 31
0.0
  0
LINE
  5
33B
100
AcDbEntity
  8
0
100
AcDbLine
 62
7
  6
CONTINUOUS
 10
400.9969461775
 20
115.362060468
 30
0.0
 11
400.9969461775
 21
121.562060468
 31
0.0
  0
LINE
  5
33C
100
AcDbEntity
  8
0
100
AcDbLine
 62
7
  6
CONTINUOUS
 10
403.1969461775
 20
115.362060468
 30
0.0
 11
403.1969461775
 21
121.562060468
 31
0.0
  0
LINE
  5
33D
100
AcDbEntity
  8
0
100
AcDbLine
 62
7
  6
CONTINUOUS
 10
410.9969461775
 20
115.362060468
 30
0.0
 11
410.9969461775
 21
121.562060468
 31
0.0
  0
LINE
  5
33E
100
AcDbEntity
  8
0
100
AcDbLine
 62
7
  6
CONTINUOUS
 10
413.1969461775
 20
115.362060468
 30
0.0
 11
413.1969461775
 21
121.562060468
 31
0.0
  0
LINE
  5
33F
100
AcDbEntity
  8
0
100
AcDbLine
 62
7
  6
CONTINUOUS
 10
543.1969461775
 20
115.362060468
 30
0.0
 11
540.9969461775
 21
115.362060468
 31
0.0
  0
LINE
  5
340
100
AcDbEntity
  8
0
100
AcDbLine
 62
7
  6
CONTINUOUS
 10
533.1969461775
 20
115.362060468
 30
0.0
 11
530.9969461775
 21
115.362060468
 31
0.0
  0
LINE
  5
341
100
AcDbEntity
  8
0
100
AcDbLine
 62
7
  6
CONTINUOUS
 10
523.1969461775
 20
115.362060468
 30
0.0
 11
520.9969461775
 21
115.362060468
 31
0.0
  0
LINE
  5
342
100
AcDbEntity
  8
0
100
AcDbLine
 62
7
  6
CONTINUOUS
 10
513.1969461775
 20
115.362060468
 30
0.0
 11
510.9969461775
 21
115.362060468
 31
0.0
  0
LINE
  5
343
100
AcDbEntity
  8
0
100
AcDbLine
 62
7
  6
CONTINUOUS
 10
503.1969461775
 20
115.362060468
 30
0.0
 11
500.9969461775
 21
115.362060468
 31
0.0
  0
LINE
  5
344
100
AcDbEntity
  8
0
100
AcDbLine
 62
7
  6
CONTINUOUS
 10
493.1969461775
 20
115.362060468
 30
0.0
 11
490.9969461775
 21
115.362060468
 31
0.0
  0
LINE
  5
345
100
AcDbEntity
  8
0
100
AcDbLine
 62
7
  6
CONTINUOUS
 10
483.1969461775
 20
115.362060468
 30
0.0
 11
480.9969461775
 21
115.362060468
 31
0.0
  0
LINE
  5
346
100
AcDbEntity
  8
0
100
AcDbLine
 62
7
  6
CONTINUOUS
 10
473.1969461775
 20
115.362060468
 30
0.0
 11
470.9969461775
 21
115.362060468
 31
0.0
  0
LINE
  5
347
100
AcDbEntity
  8
0
100
AcDbLine
 62
7
  6
CONTINUOUS
 10
463.1969461775
 20
115.362060468
 30
0.0
 11
460.9969461775
 21
115.362060468
 31
0.0
  0
LINE
  5
348
100
AcDbEntity
  8
0
100
AcDbLine
 62
7
  6
CONTINUOUS
 10
453.1969461775
 20
115.362060468
 30
0.0
 11
450.9969461775
 21
115.362060468
 31
0.0
  0
LINE
  5
349
100
AcDbEntity
  8
0
100
AcDbLine
 62
7
  6
CONTINUOUS
 10
443.1969461775
 20
115.362060468
 30
0.0
 11
440.9969461775
 21
115.362060468
 31
0.0
  0
LINE
  5
34A
100
AcDbEntity
  8
0
100
AcDbLine
 62
7
  6
CONTINUOUS
 10
433.1969461775
 20
115.362060468
 30
0.0
 11
430.9969461775
 21
115.362060468
 31
0.0
  0
LINE
  5
34B
100
AcDbEntity
  8
0
100
AcDbLine
 62
7
  6
CONTINUOUS
 10
423.1969461775
 20
115.362060468
 30
0.0
 11
420.9969461775
 21
115.362060468
 31
0.0
  0
LINE
  5
34C
100
AcDbEntity
  8
0
100
AcDbLine
 62
7
  6
CONTINUOUS
 10
413.1969461775
 20
115.362060468
 30
0.0
 11
410.9969461775
 21
115.362060468
 31
0.0
  0
LINE
  5
34D
100
AcDbEntity
  8
0
100
AcDbLine
 62
7
  6
CONTINUOUS
 10
403.1969461775
 20
115.362060468
 30
0.0
 11
400.9969461775
 21
115.362060468
 31
0.0
  0
LINE
  5
34E
100
AcDbEntity
  8
0
100
AcDbLine
 62
7
  6
CONTINUOUS
 10
393.1969461775
 20
115.362060468
 30
0.0
 11
390.9969461775
 21
115.362060468
 31
0.0
  0
LINE
  5
34F
100
AcDbEntity
  8
0
100
AcDbLine
 62
7
  6
CONTINUOUS
 10
383.1969461775
 20
115.362060468
 30
0.0
 11
380.9969461775
 21
115.362060468
 31
0.0
  0
LINE
  5
350
100
AcDbEntity
  8
0
100
AcDbLine
 62
7
  6
CONTINUOUS
 10
373.1969461775
 20
115.362060468
 30
0.0
 11
370.9969461775
 21
115.362060468
 31
0.0
  0
LINE
  5
351
100
AcDbEntity
  8
0
100
AcDbLine
 62
7
  6
CONTINUOUS
 10
363.1969461775
 20
115.362060468
 30
0.0
 11
360.9969461775
 21
115.362060468
 31
0.0
  0
LINE
  5
352
100
AcDbEntity
  8
0
100
AcDbLine
 62
7
  6
CONTINUOUS
 10
353.1969461775
 20
115.362060468
 30
0.0
 11
350.9969461775
 21
115.362060468
 31
0.0
  0
LINE
  5
353
100
AcDbEntity
  8
0
100
AcDbLine
 62
7
  6
CONTINUOUS
 10
343.1969461775
 20
115.362060468
 30
0.0
 11
340.9969461775
 21
115.362060468
 31
0.0
  0
LINE
  5
354
100
AcDbEntity
  8
0
100
AcDbLine
 62
7
  6
CONTINUOUS
 10
333.1969461775
 20
115.362060468
 30
0.0
 11
330.9969461775
 21
115.362060468
 31
0.0
  0
LINE
  5
355
100
AcDbEntity
  8
0
100
AcDbLine
 62
7
  6
CONTINUOUS
 10
323.1969461775
 20
115.362060468
 30
0.0
 11
320.9969461775
 21
115.362060468
 31
0.0
  0
LINE
  5
356
100
AcDbEntity
  8
0
100
AcDbLine
 62
7
  6
CONTINUOUS
 10
313.1969461775
 20
115.362060468
 30
0.0
 11
310.9969461775
 21
115.362060468
 31
0.0
  0
LINE
  5
357
100
AcDbEntity
  8
0
100
AcDbLine
 62
7
  6
CONTINUOUS
 10
303.1969461775
 20
115.362060468
 30
0.0
 11
300.9969461775
 21
115.362060468
 31
0.0
  0
LINE
  5
358
100
AcDbEntity
  8
0
100
AcDbLine
 62
7
  6
CONTINUOUS
 10
293.1969461775
 20
115.362060468
 30
0.0
 11
290.9969461775
 21
115.362060468
 31
0.0
  0
LINE
  5
359
100
AcDbEntity
  8
0
100
AcDbLine
 62
7
  6
CONTINUOUS
 10
283.1969461775
 20
115.362060468
 30
0.0
 11
280.9969461775
 21
115.362060468
 31
0.0
  0
LINE
  5
35A
100
AcDbEntity
  8
0
100
AcDbLine
 62
7
  6
CONTINUOUS
 10
273.1969461775
 20
115.362060468
 30
0.0
 11
270.9969461775
 21
115.362060468
 31
0.0
  0
LINE
  5
35B
100
AcDbEntity
  8
0
100
AcDbLine
 62
7
  6
CONTINUOUS
 10
263.1969461775
 20
115.362060468
 30
0.0
 11
260.9969461775
 21
115.362060468
 31
0.0
  0
LINE
  5
35C
100
AcDbEntity
  8
0
100
AcDbLine
 62
7
  6
CONTINUOUS
 10
253.1969461775
 20
115.362060468
 30
0.0
 11
250.9969461775
 21
115.362060468
 31
0.0
  0
LINE
  5
35D
100
AcDbEntity
  8
0
100
AcDbLine
 62
7
  6
CONTINUOUS
 10
243.1969461775
 20
115.362060468
 30
0.0
 11
240.9969461775
 21
115.362060468
 31
0.0
  0
LINE
  5
35E
100
AcDbEntity
  8
0
100
AcDbLine
 62
7
  6
CONTINUOUS
 10
240.9969461775
 20
121.562060468
 30
0.0
 11
243.1969461775
 21
121.562060468
 31
0.0
  0
LINE
  5
35F
100
AcDbEntity
  8
0
100
AcDbLine
 62
7
  6
CONTINUOUS
 10
250.9969461775
 20
121.562060468
 30
0.0
 11
253.1969461775
 21
121.562060468
 31
0.0
  0
LINE
  5
360
100
AcDbEntity
  8
0
100
AcDbLine
 62
7
  6
CONTINUOUS
 10
260.9969461775
 20
121.562060468
 30
0.0
 11
263.1969461775
 21
121.562060468
 31
0.0
  0
LINE
  5
361
100
AcDbEntity
  8
0
100
AcDbLine
 62
7
  6
CONTINUOUS
 10
270.9969461775
 20
121.562060468
 30
0.0
 11
273.1969461775
 21
121.562060468
 31
0.0
  0
LINE
  5
362
100
AcDbEntity
  8
0
100
AcDbLine
 62
7
  6
CONTINUOUS
 10
280.9969461775
 20
121.562060468
 30
0.0
 11
283.1969461775
 21
121.562060468
 31
0.0
  0
LINE
  5
363
100
AcDbEntity
  8
0
100
AcDbLine
 62
7
  6
CONTINUOUS
 10
290.9969461775
 20
121.562060468
 30
0.0
 11
293.1969461775
 21
121.562060468
 31
0.0
  0
LINE
  5
364
100
AcDbEntity
  8
0
100
AcDbLine
 62
7
  6
CONTINUOUS
 10
300.9969461775
 20
121.562060468
 30
0.0
 11
303.1969461775
 21
121.562060468
 31
0.0
  0
LINE
  5
365
100
AcDbEntity
  8
0
100
AcDbLine
 62
7
  6
CONTINUOUS
 10
310.9969461775
 20
121.562060468
 30
0.0
 11
313.1969461775
 21
121.562060468
 31
0.0
  0
LINE
  5
366
100
AcDbEntity
  8
0
100
AcDbLine
 62
7
  6
CONTINUOUS
 10
320.9969461775
 20
121.562060468
 30
0.0
 11
323.1969461775
 21
121.562060468
 31
0.0
  0
LINE
  5
367
100
AcDbEntity
  8
0
100
AcDbLine
 62
7
  6
CONTINUOUS
 10
330.9969461775
 20
121.562060468
 30
0.0
 11
333.1969461775
 21
121.562060468
 31
0.0
  0
LINE
  5
368
100
AcDbEntity
  8
0
100
AcDbLine
 62
7
  6
CONTINUOUS
 10
340.9969461775
 20
121.562060468
 30
0.0
 11
343.1969461775
 21
121.562060468
 31
0.0
  0
LINE
  5
369
100
AcDbEntity
  8
0
100
AcDbLine
 62
7
  6
CONTINUOUS
 10
350.9969461775
 20
121.562060468
 30
0.0
 11
353.1969461775
 21
121.562060468
 31
0.0
  0
LINE
  5
36A
100
AcDbEntity
  8
0
100
AcDbLine
 62
7
  6
CONTINUOUS
 10
360.9969461775
 20
121.562060468
 30
0.0
 11
363.1969461775
 21
121.562060468
 31
0.0
  0
LINE
  5
36B
100
AcDbEntity
  8
0
100
AcDbLine
 62
7
  6
CONTINUOUS
 10
370.9969461775
 20
121.562060468
 30
0.0
 11
373.1969461775
 21
121.562060468
 31
0.0
  0
LINE
  5
36C
100
AcDbEntity
  8
0
100
AcDbLine
 62
7
  6
CONTINUOUS
 10
380.9969461775
 20
121.562060468
 30
0.0
 11
383.1969461775
 21
121.562060468
 31
0.0
  0
LINE
  5
36D
100
AcDbEntity
  8
0
100
AcDbLine
 62
7
  6
CONTINUOUS
 10
390.9969461775
 20
121.562060468
 30
0.0
 11
393.1969461775
 21
121.562060468
 31
0.0
  0
LINE
  5
36E
100
AcDbEntity
  8
0
100
AcDbLine
 62
7
  6
CONTINUOUS
 10
400.9969461775
 20
121.562060468
 30
0.0
 11
403.1969461775
 21
121.562060468
 31
0.0
  0
LINE
  5
36F
100
AcDbEntity
  8
0
100
AcDbLine
 62
7
  6
CONTINUOUS
 10
410.9969461775
 20
121.562060468
 30
0.0
 11
413.1969461775
 21
121.562060468
 31
0.0
  0
LINE
  5
370
100
AcDbEntity
  8
0
100
AcDbLine
 62
7
  6
CONTINUOUS
 10
420.9969461775
 20
121.562060468
 30
0.0
 11
423.1969461775
 21
121.562060468
 31
0.0
  0
LINE
  5
371
100
AcDbEntity
  8
0
100
AcDbLine
 62
7
  6
CONTINUOUS
 10
430.9969461775
 20
121.562060468
 30
0.0
 11
433.1969461775
 21
121.562060468
 31
0.0
  0
LINE
  5
372
100
AcDbEntity
  8
0
100
AcDbLine
 62
7
  6
CONTINUOUS
 10
440.9969461775
 20
121.562060468
 30
0.0
 11
443.1969461775
 21
121.562060468
 31
0.0
  0
LINE
  5
373
100
AcDbEntity
  8
0
100
AcDbLine
 62
7
  6
CONTINUOUS
 10
450.9969461775
 20
121.562060468
 30
0.0
 11
453.1969461775
 21
121.562060468
 31
0.0
  0
LINE
  5
374
100
AcDbEntity
  8
0
100
AcDbLine
 62
7
  6
CONTINUOUS
 10
460.9969461775
 20
121.562060468
 30
0.0
 11
463.1969461775
 21
121.562060468
 31
0.0
  0
LINE
  5
375
100
AcDbEntity
  8
0
100
AcDbLine
 62
7
  6
CONTINUOUS
 10
470.9969461775
 20
121.562060468
 30
0.0
 11
473.1969461775
 21
121.562060468
 31
0.0
  0
LINE
  5
376
100
AcDbEntity
  8
0
100
AcDbLine
 62
7
  6
CONTINUOUS
 10
480.9969461775
 20
121.562060468
 30
0.0
 11
483.1969461775
 21
121.562060468
 31
0.0
  0
LINE
  5
377
100
AcDbEntity
  8
0
100
AcDbLine
 62
7
  6
CONTINUOUS
 10
490.9969461775
 20
121.562060468
 30
0.0
 11
493.1969461775
 21
121.562060468
 31
0.0
  0
LINE
  5
378
100
AcDbEntity
  8
0
100
AcDbLine
 62
7
  6
CONTINUOUS
 10
500.9969461775
 20
121.562060468
 30
0.0
 11
503.1969461775
 21
121.562060468
 31
0.0
  0
LINE
  5
379
100
AcDbEntity
  8
0
100
AcDbLine
 62
7
  6
CONTINUOUS
 10
510.9969461775
 20
121.562060468
 30
0.0
 11
513.1969461775
 21
121.562060468
 31
0.0
  0
LINE
  5
37A
100
AcDbEntity
  8
0
100
AcDbLine
 62
7
  6
CONTINUOUS
 10
520.9969461775
 20
121.562060468
 30
0.0
 11
523.1969461775
 21
121.562060468
 31
0.0
  0
LINE
  5
37B
100
AcDbEntity
  8
0
100
AcDbLine
 62
7
  6
CONTINUOUS
 10
530.9969461775
 20
121.562060468
 30
0.0
 11
533.1969461775
 21
121.562060468
 31
0.0
  0
LINE
  5
37C
100
AcDbEntity
  8
0
100
AcDbLine
 62
7
  6
CONTINUOUS
 10
540.9969461775
 20
121.562060468
 30
0.0
 11
543.1969461775
 21
121.562060468
 31
0.0
  0
LINE
  5
37D
100
AcDbEntity
  8
0
100
AcDbLine
 62
7
  6
CONTINUOUS
 10
420.9969461775
 20
115.362060468
 30
0.0
 11
420.9969461775
 21
121.562060468
 31
0.0
  0
LINE
  5
37E
100
AcDbEntity
  8
0
100
AcDbLine
 62
7
  6
CONTINUOUS
 10
423.1969461775
 20
115.362060468
 30
0.0
 11
423.1969461775
 21
121.562060468
 31
0.0
  0
LINE
  5
37F
100
AcDbEntity
  8
0
100
AcDbLine
 62
7
  6
CONTINUOUS
 10
228.0969461775
 20
126.362060468
 30
0.0
 11
556.0969461775
 21
126.362060468
 31
0.0
  0
LINE
  5
380
100
AcDbEntity
  8
0
100
AcDbLine
 62
7
  6
CONTINUOUS
 10
430.9969461775
 20
115.362060468
 30
0.0
 11
430.9969461775
 21
121.562060468
 31
0.0
  0
LINE
  5
381
100
AcDbEntity
  8
0
100
AcDbLine
 62
7
  6
CONTINUOUS
 10
433.1969461775
 20
115.362060468
 30
0.0
 11
433.1969461775
 21
121.562060468
 31
0.0
  0
LINE
  5
382
100
AcDbEntity
  8
0
100
AcDbLine
 62
7
  6
CONTINUOUS
 10
440.9969461775
 20
115.362060468
 30
0.0
 11
440.9969461775
 21
121.562060468
 31
0.0
  0
LINE
  5
383
100
AcDbEntity
  8
0
100
AcDbLine
 62
7
  6
CONTINUOUS
 10
443.1969461775
 20
115.362060468
 30
0.0
 11
443.1969461775
 21
121.562060468
 31
0.0
  0
LINE
  5
384
100
AcDbEntity
  8
0
100
AcDbLine
 62
7
  6
CONTINUOUS
 10
450.9969461775
 20
115.362060468
 30
0.0
 11
450.9969461775
 21
121.562060468
 31
0.0
  0
LINE
  5
385
100
AcDbEntity
  8
0
100
AcDbLine
 62
7
  6
CONTINUOUS
 10
453.1969461775
 20
115.362060468
 30
0.0
 11
453.1969461775
 21
121.562060468
 31
0.0
  0
LINE
  5
386
100
AcDbEntity
  8
0
100
AcDbLine
 62
7
  6
CONTINUOUS
 10
460.9969461775
 20
115.362060468
 30
0.0
 11
460.9969461775
 21
121.562060468
 31
0.0
  0
LINE
  5
387
100
AcDbEntity
  8
0
100
AcDbLine
 62
7
  6
CONTINUOUS
 10
463.1969461775
 20
115.362060468
 30
0.0
 11
463.1969461775
 21
121.562060468
 31
0.0
  0
LINE
  5
388
100
AcDbEntity
  8
0
100
AcDbLine
 62
7
  6
CONTINUOUS
 10
470.9969461775
 20
115.362060468
 30
0.0
 11
470.9969461775
 21
121.562060468
 31
0.0
  0
LINE
  5
389
100
AcDbEntity
  8
0
100
AcDbLine
 62
7
  6
CONTINUOUS
 10
473.1969461775
 20
115.362060468
 30
0.0
 11
473.1969461775
 21
121.562060468
 31
0.0
  0
LINE
  5
38A
100
AcDbEntity
  8
0
100
AcDbLine
 62
7
  6
CONTINUOUS
 10
480.9969461775
 20
115.362060468
 30
0.0
 11
480.9969461775
 21
121.562060468
 31
0.0
  0
LINE
  5
38B
100
AcDbEntity
  8
0
100
AcDbLine
 62
7
  6
CONTINUOUS
 10
483.1969461775
 20
115.362060468
 30
0.0
 11
483.1969461775
 21
121.562060468
 31
0.0
  0
LINE
  5
38C
100
AcDbEntity
  8
0
100
AcDbLine
 62
7
  6
CONTINUOUS
 10
490.9969461775
 20
115.362060468
 30
0.0
 11
490.9969461775
 21
121.562060468
 31
0.0
  0
LINE
  5
38D
100
AcDbEntity
  8
0
100
AcDbLine
 62
7
  6
CONTINUOUS
 10
493.1969461775
 20
115.362060468
 30
0.0
 11
493.1969461775
 21
121.562060468
 31
0.0
  0
LINE
  5
38E
100
AcDbEntity
  8
0
100
AcDbLine
 62
7
  6
CONTINUOUS
 10
500.9969461775
 20
115.362060468
 30
0.0
 11
500.9969461775
 21
121.562060468
 31
0.0
  0
LINE
  5
38F
100
AcDbEntity
  8
0
100
AcDbLine
 62
7
  6
CONTINUOUS
 10
503.1969461775
 20
115.362060468
 30
0.0
 11
503.1969461775
 21
121.562060468
 31
0.0
  0
LINE
  5
390
100
AcDbEntity
  8
0
100
AcDbLine
 62
7
  6
CONTINUOUS
 10
510.9969461775
 20
115.362060468
 30
0.0
 11
510.9969461775
 21
121.562060468
 31
0.0
  0
LINE
  5
391
100
AcDbEntity
  8
0
100
AcDbLine
 62
7
  6
CONTINUOUS
 10
513.1969461775
 20
115.362060468
 30
0.0
 11
513.1969461775
 21
121.562060468
 31
0.0
  0
LINE
  5
392
100
AcDbEntity
  8
0
100
AcDbLine
 62
7
  6
CONTINUOUS
 10
520.9969461775
 20
115.362060468
 30
0.0
 11
520.9969461775
 21
121.562060468
 31
0.0
  0
LINE
  5
393
100
AcDbEntity
  8
0
100
AcDbLine
 62
7
  6
CONTINUOUS
 10
523.1969461775
 20
115.362060468
 30
0.0
 11
523.1969461775
 21
121.562060468
 31
0.0
  0
LINE
  5
394
100
AcDbEntity
  8
0
100
AcDbLine
 62
7
  6
CONTINUOUS
 10
530.9969461775
 20
115.362060468
 30
0.0
 11
530.9969461775
 21
121.562060468
 31
0.0
  0
LINE
  5
395
100
AcDbEntity
  8
0
100
AcDbLine
 62
7
  6
CONTINUOUS
 10
533.1969461775
 20
115.362060468
 30
0.0
 11
533.1969461775
 21
121.562060468
 31
0.0
  0
LINE
  5
396
100
AcDbEntity
  8
0
100
AcDbLine
 62
7
  6
CONTINUOUS
 10
540.9969461775
 20
115.362060468
 30
0.0
 11
540.9969461775
 21
121.562060468
 31
0.0
  0
LINE
  5
397
100
AcDbEntity
  8
0
100
AcDbLine
 62
7
  6
CONTINUOUS
 10
543.1969461775
 20
115.362060468
 30
0.0
 11
543.1969461775
 21
121.562060468
 31
0.0
  0
LINE
  5
398
100
AcDbEntity
  8
0
100
AcDbLine
 62
7
  6
CONTINUOUS
 10
556.0969461775
 20
126.362060468
 30
0.0
 11
556.0969461775
 21
71.362060468
 31
0.0
  0
LINE
  5
399
100
AcDbEntity
  8
0
100
AcDbLine
 62
7
  6
CONTINUOUS
 10
245.6665405955
 20
45.2123283801
 30
0.0
 11
229.7167931271
 21
61.1620758484
 31
0.0
  0
LINE
  5
39A
100
AcDbEntity
  8
0
100
AcDbLine
 62
7
  6
CONTINUOUS
 10
245.6665405955
 20
45.2123283801
 30
0.0
 11
407.6665405955
 21
45.2123283801
 31
0.0
  0
LINE
  5
39B
100
AcDbEntity
  8
S-EBENEN
100
AcDbLine
 62
9
  6
CONTINUOUS
 10
326.1385405955
 20
64.1861098512
 30
0.0
 11
326.1385405955
 21
44.2385469091
 31
0.0
  0
LINE
  5
39C
100
AcDbEntity
  8
S-EBENEN
100
AcDbLine
 62
7
  6
CONTINUOUS
 10
327.1945405955
 20
64.1861098512
 30
0.0
 11
327.1945405955
 21
44.2385469091
 31
0.0
  0
LINE
  5
39D
100
AcDbEntity
  8
S-EBENEN
100
AcDbLine
 62
7
  6
CONTINUOUS
 10
424.5900695348
 20
53.6843283801
 30
0.0
 11
228.7430116561
 21
53.6843283801
 31
0.0
  0
LINE
  5
39E
100
AcDbEntity
  8
S-EBENEN
100
AcDbLine
 62
9
  6
CONTINUOUS
 10
424.5900695348
 20
54.7403283801
 30
0.0
 11
228.7430116561
 21
54.7403283801
 31
0.0
  0
LINE
  5
39F
100
AcDbEntity
  8
0
100
AcDbLine
 62
7
  6
CONTINUOUS
 10
418.6665405955
 20
63.2123283801
 30
0.0
 11
234.6665405955
 21
63.2123283801
 31
0.0
  0
LINE
  5
3A0
100
AcDbEntity
  8
0
100
AcDbLine
 62
7
  6
CONTINUOUS
 10
423.6162880638
 20
61.1620758484
 30
0.0
 11
407.6665405955
 21
45.2123283801
 31
0.0
  0
LINE
  5
3A1
100
AcDbEntity
  8
0
100
AcDbLine
 62
7
  6
CONTINUOUS
 10
235.1246321102
 20
18.8408879828
 30
0.0
 11
251.0743795785
 21
34.7906354511
 31
0.0
  0
LINE
  5
3A2
100
AcDbEntity
  8
S-EBENEN
100
AcDbLine
 62
9
  6
CONTINUOUS
 10
411.5463795785
 20
36.562483727
 30
0.0
 11
411.5463795785
 21
15.0187871752
 31
0.0
  0
LINE
  5
3A3
100
AcDbEntity
  8
S-EBENEN
100
AcDbLine
 62
7
  6
CONTINUOUS
 10
412.6023795785
 20
36.562483727
 30
0.0
 11
412.6023795785
 21
15.0187871752
 31
0.0
  0
LINE
  5
3A4
100
AcDbEntity
  8
0
100
AcDbLine
 62
7
  6
CONTINUOUS
 10
240.0743795785
 20
16.7906354511
 30
0.0
 11
584.0743795785
 21
16.7906354511
 31
0.0
  0
LINE
  5
3A5
100
AcDbEntity
  8
S-EBENEN
100
AcDbLine
 62
7
  6
CONTINUOUS
 10
590.7959753227
 20
25.2626354511
 30
0.0
 11
233.3527838343
 21
25.2626354511
 31
0.0
  0
LINE
  5
3A6
100
AcDbEntity
  8
S-EBENEN
100
AcDbLine
 62
9
  6
CONTINUOUS
 10
590.7959753227
 20
26.3186354511
 30
0.0
 11
233.3527838343
 21
26.3186354511
 31
0.0
  0
LINE
  5
3A7
100
AcDbEntity
  8
0
100
AcDbLine
 62
7
  6
CONTINUOUS
 10
573.0743795785
 20
34.7906354511
 30
0.0
 11
251.0743795785
 21
34.7906354511
 31
0.0
  0
LINE
  5
3A8
100
AcDbEntity
  8
0
100
AcDbLine
 62
7
  6
CONTINUOUS
 10
573.0743795785
 20
34.7906354511
 30
0.0
 11
589.0241270468
 21
18.8408879828
 31
0.0
  0
LINE
  5
3A9
100
AcDbEntity
  8
0
100
AcDbLine
 62
7
  6
CONTINUOUS
 10
408.8045660546
 20
198.3806172245
 30
0.0
 11
408.8045660546
 21
253.3806172245
 31
0.0
  0
LINE
  5
3AA
100
AcDbEntity
  8
0
100
AcDbLine
 62
7
  6
CONTINUOUS
 10
421.7045660546
 20
242.3806172245
 30
0.0
 11
421.7045660546
 21
248.5806172245
 31
0.0
  0
LINE
  5
3AB
100
AcDbEntity
  8
0
100
AcDbLine
 62
7
  6
CONTINUOUS
 10
423.9045660546
 20
242.3806172245
 30
0.0
 11
423.9045660546
 21
248.5806172245
 31
0.0
  0
LINE
  5
3AC
100
AcDbEntity
  8
0
100
AcDbLine
 62
7
  6
CONTINUOUS
 10
431.7045660546
 20
242.3806172245
 30
0.0
 11
431.7045660546
 21
248.5806172245
 31
0.0
  0
LINE
  5
3AD
100
AcDbEntity
  8
0
100
AcDbLine
 62
7
  6
CONTINUOUS
 10
433.9045660546
 20
242.3806172245
 30
0.0
 11
433.9045660546
 21
248.5806172245
 31
0.0
  0
LINE
  5
3AE
100
AcDbEntity
  8
0
100
AcDbLine
 62
7
  6
CONTINUOUS
 10
438.8045660546
 20
223.3806172245
 30
0.0
 11
438.8045660546
 21
215.4801675548
 31
0.0
  0
LINE
  5
3AF
100
AcDbEntity
  8
0
100
AcDbLine
 62
7
  6
CONTINUOUS
 10
441.7045660546
 20
242.3806172245
 30
0.0
 11
441.7045660546
 21
248.5806172245
 31
0.0
  0
LINE
  5
3B0
100
AcDbEntity
  8
0
100
AcDbLine
 62
7
  6
CONTINUOUS
 10
443.9045660546
 20
242.3806172245
 30
0.0
 11
443.9045660546
 21
248.5806172245
 31
0.0
  0
LINE
  5
3B1
100
AcDbEntity
  8
0
100
AcDbLine
 62
7
  6
CONTINUOUS
 10
450.8045660546
 20
215.4801675548
 30
0.0
 11
450.8045660546
 21
223.3806172245
 31
0.0
  0
LINE
  5
3B2
100
AcDbEntity
  8
0
100
AcDbLine
 62
7
  6
CONTINUOUS
 10
451.7045660546
 20
242.3806172245
 30
0.0
 11
451.7045660546
 21
248.5806172245
 31
0.0
  0
LINE
  5
3B3
100
AcDbEntity
  8
0
100
AcDbLine
 62
7
  6
CONTINUOUS
 10
453.9045660546
 20
242.3806172245
 30
0.0
 11
453.9045660546
 21
248.5806172245
 31
0.0
  0
LINE
  5
3B4
100
AcDbEntity
  8
0
100
AcDbLine
 62
7
  6
CONTINUOUS
 10
461.7045660546
 20
242.3806172245
 30
0.0
 11
461.7045660546
 21
248.5806172245
 31
0.0
  0
LINE
  5
3B5
100
AcDbEntity
  8
0
100
AcDbLine
 62
7
  6
CONTINUOUS
 10
463.9045660546
 20
242.3806172245
 30
0.0
 11
463.9045660546
 21
248.5806172245
 31
0.0
  0
LINE
  5
3B6
100
AcDbEntity
  8
0
100
AcDbLine
 62
7
  6
CONTINUOUS
 10
576.8045660546
 20
198.3806172245
 30
0.0
 11
408.8045660546
 21
198.3806172245
 31
0.0
  0
LINE
  5
3B7
100
AcDbEntity
  8
0
100
AcDbLine
 62
7
  6
CONTINUOUS
 10
471.7045660546
 20
242.3806172245
 30
0.0
 11
471.7045660546
 21
248.5806172245
 31
0.0
  0
LINE
  5
3B8
100
AcDbEntity
  8
0
100
AcDbLine
 62
7
  6
CONTINUOUS
 10
473.9045660546
 20
242.3806172245
 30
0.0
 11
473.9045660546
 21
248.5806172245
 31
0.0
  0
LINE
  5
3B9
100
AcDbEntity
  8
0
100
AcDbLine
 62
7
  6
CONTINUOUS
 10
481.7045660546
 20
242.3806172245
 30
0.0
 11
481.7045660546
 21
248.5806172245
 31
0.0
  0
LINE
  5
3BA
100
AcDbEntity
  8
0
100
AcDbLine
 62
7
  6
CONTINUOUS
 10
539.3045660546
 20
213.8806172245
 30
0.0
 11
516.3045660546
 21
213.8806172245
 31
0.0
  0
LINE
  5
3BB
100
AcDbEntity
  8
0
100
AcDbLine
 62
7
  6
CONTINUOUS
 10
483.9045660546
 20
242.3806172245
 30
0.0
 11
483.9045660546
 21
248.5806172245
 31
0.0
  0
LINE
  5
3BC
100
AcDbEntity
  8
0
100
AcDbLine
 62
7
  6
CONTINUOUS
 10
438.8045660546
 20
215.4801675548
 30
0.0
 11
450.8045660546
 21
215.4801675548
 31
0.0
  0
LINE
  5
3BD
100
AcDbEntity
  8
0
100
AcDbLine
 62
7
  6
CONTINUOUS
 10
491.7045660546
 20
242.3806172245
 30
0.0
 11
491.7045660546
 21
248.5806172245
 31
0.0
  0
LINE
  5
3BE
100
AcDbEntity
  8
S-EBENEN
100
AcDbLine
 62
7
  6
CONTINUOUS
 10
492.2765660546
 20
254.2646138309
 30
0.0
 11
492.2765660546
 21
197.4966206182
 31
0.0
  0
LINE
  5
3BF
100
AcDbEntity
  8
S-EBENEN
100
AcDbLine
 62
9
  6
CONTINUOUS
 10
493.3325660546
 20
254.2646138309
 30
0.0
 11
493.3325660546
 21
197.4966206182
 31
0.0
  0
LINE
  5
3C0
100
AcDbEntity
  8
0
100
AcDbLine
 62
7
  6
CONTINUOUS
 10
450.8045660546
 20
223.3806172245
 30
0.0
 11
438.8045660546
 21
223.3806172245
 31
0.0
  0
LINE
  5
3C1
100
AcDbEntity
  8
S-EBENEN
100
AcDbLine
 62
9
  6
CONTINUOUS
 10
577.688562661
 20
225.3526172245
 30
0.0
 11
407.9205694483
 21
225.3526172245
 31
0.0
  0
LINE
  5
3C2
100
AcDbEntity
  8
0
100
AcDbLine
 62
7
  6
CONTINUOUS
 10
516.3045660546
 20
225.8806172245
 30
0.0
 11
539.3045660546
 21
225.8806172245
 31
0.0
  0
LINE
  5
3C3
100
AcDbEntity
  8
S-EBENEN
100
AcDbLine
 62
7
  6
CONTINUOUS
 10
577.688562661
 20
226.4086172245
 30
0.0
 11
407.9205694483
 21
226.4086172245
 31
0.0
  0
LINE
  5
3C4
100
AcDbEntity
  8
0
100
AcDbLine
 62
7
  6
CONTINUOUS
 10
493.9045660546
 20
242.3806172245
 30
0.0
 11
493.9045660546
 21
248.5806172245
 31
0.0
  0
LINE
  5
3C5
100
AcDbEntity
  8
0
100
AcDbLine
 62
7
  6
CONTINUOUS
 10
501.7045660546
 20
242.3806172245
 30
0.0
 11
501.7045660546
 21
248.5806172245
 31
0.0
  0
LINE
  5
3C6
100
AcDbEntity
  8
0
100
AcDbLine
 62
7
  6
CONTINUOUS
 10
503.9045660546
 20
242.3806172245
 30
0.0
 11
503.9045660546
 21
248.5806172245
 31
0.0
  0
LINE
  5
3C7
100
AcDbEntity
  8
0
100
AcDbLine
 62
7
  6
CONTINUOUS
 10
563.9045660546
 20
242.3806172245
 30
0.0
 11
561.7045660546
 21
242.3806172245
 31
0.0
  0
LINE
  5
3C8
100
AcDbEntity
  8
0
100
AcDbLine
 62
7
  6
CONTINUOUS
 10
553.9045660546
 20
242.3806172245
 30
0.0
 11
551.7045660546
 21
242.3806172245
 31
0.0
  0
LINE
  5
3C9
100
AcDbEntity
  8
0
100
AcDbLine
 62
7
  6
CONTINUOUS
 10
543.9045660546
 20
242.3806172245
 30
0.0
 11
541.7045660546
 21
242.3806172245
 31
0.0
  0
LINE
  5
3CA
100
AcDbEntity
  8
0
100
AcDbLine
 62
7
  6
CONTINUOUS
 10
533.9045660546
 20
242.3806172245
 30
0.0
 11
531.7045660546
 21
242.3806172245
 31
0.0
  0
LINE
  5
3CB
100
AcDbEntity
  8
0
100
AcDbLine
 62
7
  6
CONTINUOUS
 10
523.9045660546
 20
242.3806172245
 30
0.0
 11
521.7045660546
 21
242.3806172245
 31
0.0
  0
LINE
  5
3CC
100
AcDbEntity
  8
0
100
AcDbLine
 62
7
  6
CONTINUOUS
 10
513.9045660546
 20
242.3806172245
 30
0.0
 11
511.7045660546
 21
242.3806172245
 31
0.0
  0
LINE
  5
3CD
100
AcDbEntity
  8
0
100
AcDbLine
 62
7
  6
CONTINUOUS
 10
503.9045660546
 20
242.3806172245
 30
0.0
 11
501.7045660546
 21
242.3806172245
 31
0.0
  0
LINE
  5
3CE
100
AcDbEntity
  8
0
100
AcDbLine
 62
7
  6
CONTINUOUS
 10
493.9045660546
 20
242.3806172245
 30
0.0
 11
491.7045660546
 21
242.3806172245
 31
0.0
  0
LINE
  5
3CF
100
AcDbEntity
  8
0
100
AcDbLine
 62
7
  6
CONTINUOUS
 10
483.9045660546
 20
242.3806172245
 30
0.0
 11
481.7045660546
 21
242.3806172245
 31
0.0
  0
LINE
  5
3D0
100
AcDbEntity
  8
0
100
AcDbLine
 62
7
  6
CONTINUOUS
 10
473.9045660546
 20
242.3806172245
 30
0.0
 11
471.7045660546
 21
242.3806172245
 31
0.0
  0
LINE
  5
3D1
100
AcDbEntity
  8
0
100
AcDbLine
 62
7
  6
CONTINUOUS
 10
463.9045660546
 20
242.3806172245
 30
0.0
 11
461.7045660546
 21
242.3806172245
 31
0.0
  0
LINE
  5
3D2
100
AcDbEntity
  8
0
100
AcDbLine
 62
7
  6
CONTINUOUS
 10
453.9045660546
 20
242.3806172245
 30
0.0
 11
451.7045660546
 21
242.3806172245
 31
0.0
  0
LINE
  5
3D3
100
AcDbEntity
  8
0
100
AcDbLine
 62
7
  6
CONTINUOUS
 10
443.9045660546
 20
242.3806172245
 30
0.0
 11
441.7045660546
 21
242.3806172245
 31
0.0
  0
LINE
  5
3D4
100
AcDbEntity
  8
0
100
AcDbLine
 62
7
  6
CONTINUOUS
 10
433.9045660546
 20
242.3806172245
 30
0.0
 11
431.7045660546
 21
242.3806172245
 31
0.0
  0
LINE
  5
3D5
100
AcDbEntity
  8
0
100
AcDbLine
 62
7
  6
CONTINUOUS
 10
423.9045660546
 20
242.3806172245
 30
0.0
 11
421.7045660546
 21
242.3806172245
 31
0.0
  0
LINE
  5
3D6
100
AcDbEntity
  8
0
100
AcDbLine
 62
7
  6
CONTINUOUS
 10
511.7045660546
 20
242.3806172245
 30
0.0
 11
511.7045660546
 21
248.5806172245
 31
0.0
  0
LINE
  5
3D7
100
AcDbEntity
  8
0
100
AcDbLine
 62
7
  6
CONTINUOUS
 10
513.9045660546
 20
242.3806172245
 30
0.0
 11
513.9045660546
 21
248.5806172245
 31
0.0
  0
LINE
  5
3D8
100
AcDbEntity
  8
0
100
AcDbLine
 62
7
  6
CONTINUOUS
 10
421.7045660546
 20
248.5806172245
 30
0.0
 11
423.9045660546
 21
248.5806172245
 31
0.0
  0
LINE
  5
3D9
100
AcDbEntity
  8
0
100
AcDbLine
 62
7
  6
CONTINUOUS
 10
431.7045660546
 20
248.5806172245
 30
0.0
 11
433.9045660546
 21
248.5806172245
 31
0.0
  0
LINE
  5
3DA
100
AcDbEntity
  8
0
100
AcDbLine
 62
7
  6
CONTINUOUS
 10
441.7045660546
 20
248.5806172245
 30
0.0
 11
443.9045660546
 21
248.5806172245
 31
0.0
  0
LINE
  5
3DB
100
AcDbEntity
  8
0
100
AcDbLine
 62
7
  6
CONTINUOUS
 10
451.7045660546
 20
248.5806172245
 30
0.0
 11
453.9045660546
 21
248.5806172245
 31
0.0
  0
LINE
  5
3DC
100
AcDbEntity
  8
0
100
AcDbLine
 62
7
  6
CONTINUOUS
 10
461.7045660546
 20
248.5806172245
 30
0.0
 11
463.9045660546
 21
248.5806172245
 31
0.0
  0
LINE
  5
3DD
100
AcDbEntity
  8
0
100
AcDbLine
 62
7
  6
CONTINUOUS
 10
471.7045660546
 20
248.5806172245
 30
0.0
 11
473.9045660546
 21
248.5806172245
 31
0.0
  0
LINE
  5
3DE
100
AcDbEntity
  8
0
100
AcDbLine
 62
7
  6
CONTINUOUS
 10
481.7045660546
 20
248.5806172245
 30
0.0
 11
483.9045660546
 21
248.5806172245
 31
0.0
  0
LINE
  5
3DF
100
AcDbEntity
  8
0
100
AcDbLine
 62
7
  6
CONTINUOUS
 10
491.7045660546
 20
248.5806172245
 30
0.0
 11
493.9045660546
 21
248.5806172245
 31
0.0
  0
LINE
  5
3E0
100
AcDbEntity
  8
0
100
AcDbLine
 62
7
  6
CONTINUOUS
 10
501.7045660546
 20
248.5806172245
 30
0.0
 11
503.9045660546
 21
248.5806172245
 31
0.0
  0
LINE
  5
3E1
100
AcDbEntity
  8
0
100
AcDbLine
 62
7
  6
CONTINUOUS
 10
511.7045660546
 20
248.5806172245
 30
0.0
 11
513.9045660546
 21
248.5806172245
 31
0.0
  0
LINE
  5
3E2
100
AcDbEntity
  8
0
100
AcDbLine
 62
7
  6
CONTINUOUS
 10
521.7045660546
 20
248.5806172245
 30
0.0
 11
523.9045660546
 21
248.5806172245
 31
0.0
  0
LINE
  5
3E3
100
AcDbEntity
  8
0
100
AcDbLine
 62
7
  6
CONTINUOUS
 10
531.7045660546
 20
248.5806172245
 30
0.0
 11
533.9045660546
 21
248.5806172245
 31
0.0
  0
LINE
  5
3E4
100
AcDbEntity
  8
0
100
AcDbLine
 62
7
  6
CONTINUOUS
 10
541.7045660546
 20
248.5806172245
 30
0.0
 11
543.9045660546
 21
248.5806172245
 31
0.0
  0
LINE
  5
3E5
100
AcDbEntity
  8
0
100
AcDbLine
 62
7
  6
CONTINUOUS
 10
551.7045660546
 20
248.5806172245
 30
0.0
 11
553.9045660546
 21
248.5806172245
 31
0.0
  0
LINE
  5
3E6
100
AcDbEntity
  8
0
100
AcDbLine
 62
7
  6
CONTINUOUS
 10
561.7045660546
 20
248.5806172245
 30
0.0
 11
563.9045660546
 21
248.5806172245
 31
0.0
  0
LINE
  5
3E7
100
AcDbEntity
  8
0
100
AcDbLine
 62
7
  6
CONTINUOUS
 10
521.7045660546
 20
242.3806172245
 30
0.0
 11
521.7045660546
 21
248.5806172245
 31
0.0
  0
LINE
  5
3E8
100
AcDbEntity
  8
0
100
AcDbLine
 62
7
  6
CONTINUOUS
 10
408.8045660546
 20
253.3806172245
 30
0.0
 11
576.8045660546
 21
253.3806172245
 31
0.0
  0
LINE
  5
3E9
100
AcDbEntity
  8
0
100
AcDbLine
 62
7
  6
CONTINUOUS
 10
523.9045660546
 20
242.3806172245
 30
0.0
 11
523.9045660546
 21
248.5806172245
 31
0.0
  0
LINE
  5
3EA
100
AcDbEntity
  8
0
100
AcDbLine
 62
7
  6
CONTINUOUS
 10
531.7045660546
 20
242.3806172245
 30
0.0
 11
531.7045660546
 21
248.5806172245
 31
0.0
  0
LINE
  5
3EB
100
AcDbEntity
  8
0
100
AcDbLine
 62
7
  6
CONTINUOUS
 10
533.9045660546
 20
242.3806172245
 30
0.0
 11
533.9045660546
 21
248.5806172245
 31
0.0
  0
LINE
  5
3EC
100
AcDbEntity
  8
0
100
AcDbLine
 62
7
  6
CONTINUOUS
 10
541.7045660546
 20
242.3806172245
 30
0.0
 11
541.7045660546
 21
248.5806172245
 31
0.0
  0
LINE
  5
3ED
100
AcDbEntity
  8
0
100
AcDbLine
 62
7
  6
CONTINUOUS
 10
543.9045660546
 20
242.3806172245
 30
0.0
 11
543.9045660546
 21
248.5806172245
 31
0.0
  0
LINE
  5
3EE
100
AcDbEntity
  8
0
100
AcDbLine
 62
7
  6
CONTINUOUS
 10
551.7045660546
 20
242.3806172245
 30
0.0
 11
551.7045660546
 21
248.5806172245
 31
0.0
  0
LINE
  5
3EF
100
AcDbEntity
  8
0
100
AcDbLine
 62
7
  6
CONTINUOUS
 10
553.9045660546
 20
242.3806172245
 30
0.0
 11
553.9045660546
 21
248.5806172245
 31
0.0
  0
LINE
  5
3F0
100
AcDbEntity
  8
0
100
AcDbLine
 62
7
  6
CONTINUOUS
 10
561.7045660546
 20
242.3806172245
 30
0.0
 11
561.7045660546
 21
248.5806172245
 31
0.0
  0
LINE
  5
3F1
100
AcDbEntity
  8
0
100
AcDbLine
 62
7
  6
CONTINUOUS
 10
563.9045660546
 20
242.3806172245
 30
0.0
 11
563.9045660546
 21
248.5806172245
 31
0.0
  0
LINE
  5
3F2
100
AcDbEntity
  8
0
100
AcDbLine
 62
7
  6
CONTINUOUS
 10
576.8045660546
 20
253.3806172245
 30
0.0
 11
576.8045660546
 21
198.3806172245
 31
0.0
  0
LINE
  5
3F3
100
AcDbEntity
  8
0
100
AcDbLine
 62
7
  6
CONTINUOUS
 10
583.9899474106
 20
196.7916341737
 30
0.0
 11
583.9899474106
 21
251.7916341737
 31
0.0
  0
LINE
  5
3F4
100
AcDbEntity
  8
0
100
AcDbLine
 62
7
  6
CONTINUOUS
 10
751.9899474106
 20
196.7916341737
 30
0.0
 11
583.9899474106
 21
196.7916341737
 31
0.0
  0
LINE
  5
3F5
100
AcDbEntity
  8
0
100
AcDbLine
 62
7
  6
CONTINUOUS
 10
714.4899474106
 20
212.2916341737
 30
0.0
 11
691.4899474106
 21
212.2916341737
 31
0.0
  0
LINE
  5
3F6
100
AcDbEntity
  8
S-EBENEN
100
AcDbLine
 62
7
  6
CONTINUOUS
 10
667.4619474106
 20
252.6756394056
 30
0.0
 11
667.4619474106
 21
195.9076289418
 31
0.0
  0
LINE
  5
3F7
100
AcDbEntity
  8
S-EBENEN
100
AcDbLine
 62
9
  6
CONTINUOUS
 10
668.5179474106
 20
252.6756394056
 30
0.0
 11
668.5179474106
 21
195.9076289418
 31
0.0
  0
LINE
  5
3F8
100
AcDbEntity
  8
S-EBENEN
100
AcDbLine
 62
9
  6
CONTINUOUS
 10
752.8739526425
 20
223.7636341737
 30
0.0
 11
583.1059421787
 21
223.7636341737
 31
0.0
  0
LINE
  5
3F9
100
AcDbEntity
  8
0
100
AcDbLine
 62
7
  6
CONTINUOUS
 10
691.4899474106
 20
224.2916341737
 30
0.0
 11
714.4899474106
 21
224.2916341737
 31
0.0
  0
LINE
  5
3FA
100
AcDbEntity
  8
S-EBENEN
100
AcDbLine
 62
7
  6
CONTINUOUS
 10
752.8739526425
 20
224.8196341737
 30
0.0
 11
583.1059421787
 21
224.8196341737
 31
0.0
  0
LINE
  5
3FB
100
AcDbEntity
  8
0
100
AcDbLine
 62
7
  6
CONTINUOUS
 10
583.9899474106
 20
251.7916341737
 30
0.0
 11
751.9899474106
 21
251.7916341737
 31
0.0
  0
LINE
  5
3FC
100
AcDbEntity
  8
0
100
AcDbLine
 62
6
  6
CONTINUOUS
 10
702.9899474106
 20
212.2916341737
 30
0.0
 11
702.9899474106
 21
224.2916341737
 31
0.0
  0
LINE
  5
3FD
100
AcDbEntity
  8
0
100
AcDbLine
 62
7
  6
CONTINUOUS
 10
736.5661607405
 20
210.5110788792
 30
0.0
 11
736.5661607405
 21
215.1747684057
 31
0.0
  0
LINE
  5
3FE
100
AcDbEntity
  8
0
100
AcDbLine
 62
7
  6
CONTINUOUS
 10
743.0661607405
 20
215.1747684057
 30
0.0
 11
743.0661607405
 21
210.5110788792
 31
0.0
  0
LINE
  5
3FF
100
AcDbEntity
  8
0
100
AcDbLine
 62
7
  6
CONTINUOUS
 10
751.9899474106
 20
251.7916341737
 30
0.0
 11
751.9899474106
 21
196.7916341737
 31
0.0
  0
LINE
  5
400
100
AcDbEntity
  8
0
100
AcDbLine
 62
7
  6
CONTINUOUS
 10
631.5049022386
 20
192.375746067
 30
0.0
 11
631.5049022386
 21
20.875746067
 31
0.0
  0
LINE
  5
401
100
AcDbEntity
  8
0
100
AcDbLine
 62
7
  6
CONTINUOUS
 10
631.5049022386
 20
20.875746067
 30
0.0
 11
963.0049022386
 21
20.875746067
 31
0.0
  0
LINE
  5
402
100
AcDbEntity
  8
S-EBENEN
100
AcDbLine
 62
9
  6
CONTINUOUS
 10
796.7269022386
 20
194.2419822525
 30
0.0
 11
796.7269022386
 21
19.0095098815
 31
0.0
  0
LINE
  5
403
100
AcDbEntity
  8
S-EBENEN
100
AcDbLine
 62
7
  6
CONTINUOUS
 10
797.7829022386
 20
194.2419822525
 30
0.0
 11
797.7829022386
 21
19.0095098815
 31
0.0
  0
LINE
  5
404
100
AcDbEntity
  8
S-EBENEN
100
AcDbLine
 62
7
  6
CONTINUOUS
 10
964.8711384241
 20
106.097746067
 30
0.0
 11
629.6386660531
 21
106.097746067
 31
0.0
  0
LINE
  5
405
100
AcDbEntity
  8
S-EBENEN
100
AcDbLine
 62
9
  6
CONTINUOUS
 10
964.8711384241
 20
107.153746067
 30
0.0
 11
629.6386660531
 21
107.153746067
 31
0.0
  0
LINE
  5
406
100
AcDbEntity
  8
0
100
AcDbLine
 62
7
  6
CONTINUOUS
 10
963.0049022386
 20
192.375746067
 30
0.0
 11
631.5049022386
 21
192.375746067
 31
0.0
  0
LINE
  5
407
100
AcDbEntity
  8
0
100
AcDbLine
 62
7
  6
CONTINUOUS
 10
963.0049022386
 20
20.875746067
 30
0.0
 11
963.0049022386
 21
192.375746067
 31
0.0
  0
LINE
  5
408
100
AcDbEntity
  8
0
100
AcDbLine
 62
7
  6
CONTINUOUS
 10
446.4477879785
 20
44.4445021043
 30
0.0
 11
430.4980405102
 21
60.3942495726
 31
0.0
  0
LINE
  5
409
100
AcDbEntity
  8
0
100
AcDbLine
 62
7
  6
CONTINUOUS
 10
446.4477879785
 20
44.4445021043
 30
0.0
 11
608.4477879785
 21
44.4445021043
 31
0.0
  0
LINE
  5
40A
100
AcDbEntity
  8
S-EBENEN
100
AcDbLine
 62
9
  6
CONTINUOUS
 10
526.9197879785
 20
63.4182835754
 30
0.0
 11
526.9197879785
 21
43.4707206332
 31
0.0
  0
LINE
  5
40B
100
AcDbEntity
  8
S-EBENEN
100
AcDbLine
 62
7
  6
CONTINUOUS
 10
527.9757879785
 20
63.4182835754
 30
0.0
 11
527.9757879785
 21
43.4707206332
 31
0.0
  0
LINE
  5
40C
100
AcDbEntity
  8
S-EBENEN
100
AcDbLine
 62
7
  6
CONTINUOUS
 10
625.3713169179
 20
52.9165021043
 30
0.0
 11
429.5242590391
 21
52.9165021043
 31
0.0
  0
LINE
  5
40D
100
AcDbEntity
  8
S-EBENEN
100
AcDbLine
 62
9
  6
CONTINUOUS
 10
625.3713169179
 20
53.9725021043
 30
0.0
 11
429.5242590391
 21
53.9725021043
 31
0.0
  0
LINE
  5
40E
100
AcDbEntity
  8
0
100
AcDbLine
 62
7
  6
CONTINUOUS
 10
619.4477879785
 20
62.4445021043
 30
0.0
 11
435.4477879785
 21
62.4445021043
 31
0.0
  0
LINE
  5
40F
100
AcDbEntity
  8
0
100
AcDbLine
 62
7
  6
CONTINUOUS
 10
624.3975354468
 20
60.3942495726
 30
0.0
 11
608.4477879785
 21
44.4445021043
 31
0.0
  0
LINE
  5
410
100
AcDbEntity
  8
0
100
AcDbLine
 62
7
  6
CONTINUOUS
 10
238.569003707
 20
-5.9833890883
 30
0.0
 11
254.5187511753
 21
9.96635838
 31
0.0
  0
LINE
  5
411
100
AcDbEntity
  8
S-EBENEN
100
AcDbLine
 62
9
  6
CONTINUOUS
 10
414.9907511753
 20
11.7382066559
 30
0.0
 11
414.9907511753
 21
-9.805489896
 31
0.0
  0
LINE
  5
412
100
AcDbEntity
  8
S-EBENEN
100
AcDbLine
 62
7
  6
CONTINUOUS
 10
416.0467511753
 20
11.7382066559
 30
0.0
 11
416.0467511753
 21
-9.805489896
 31
0.0
  0
LINE
  5
413
100
AcDbEntity
  8
0
100
AcDbLine
 62
7
  6
CONTINUOUS
 10
243.5187511753
 20
-8.03364162
 30
0.0
 11
587.5187511753
 21
-8.03364162
 31
0.0
  0
LINE
  5
414
100
AcDbEntity
  8
S-EBENEN
100
AcDbLine
 62
7
  6
CONTINUOUS
 10
594.2403469196
 20
0.43835838
 30
0.0
 11
236.7971554311
 21
0.43835838
 31
0.0
  0
LINE
  5
415
100
AcDbEntity
  8
S-EBENEN
100
AcDbLine
 62
9
  6
CONTINUOUS
 10
594.2403469196
 20
1.49435838
 30
0.0
 11
236.7971554311
 21
1.49435838
 31
0.0
  0
LINE
  5
416
100
AcDbEntity
  8
0
100
AcDbLine
 62
7
  6
CONTINUOUS
 10
576.5187511753
 20
9.96635838
 30
0.0
 11
254.5187511753
 21
9.96635838
 31
0.0
  0
LINE
  5
417
100
AcDbEntity
  8
0
100
AcDbLine
 62
7
  6
CONTINUOUS
 10
576.5187511753
 20
9.96635838
 30
0.0
 11
592.4684986436
 21
-5.9833890883
 31
0.0
  0
LINE
  5
418
100
AcDbEntity
  8
0
100
AcDbLine
 62
7
  6
CONTINUOUS
 10
561.5895711597
 20
162.9870781898
 30
0.0
 11
561.5895711597
 21
136.7870781898
 31
0.0
  0
LINE
  5
419
100
AcDbEntity
  8
0
100
AcDbLine
 62
7
  6
CONTINUOUS
 10
566.5895711597
 20
131.7870781898
 30
0.0
 11
611.5895711597
 21
131.7870781898
 31
0.0
  0
LINE
  5
41A
100
AcDbEntity
  8
S-EBENEN
100
AcDbLine
 62
9
  6
CONTINUOUS
 10
588.5615711597
 20
168.3166400202
 30
0.0
 11
588.5615711597
 21
131.4575163595
 31
0.0
  0
LINE
  5
41B
100
AcDbEntity
  8
S-EBENEN
100
AcDbLine
 62
7
  6
CONTINUOUS
 10
616.91913299
 20
149.3590781898
 30
0.0
 11
561.2600093294
 21
149.3590781898
 31
0.0
  0
LINE
  5
41C
100
AcDbEntity
  8
S-EBENEN
100
AcDbLine
 62
7
  6
CONTINUOUS
 10
589.6175711597
 20
168.3166400202
 30
0.0
 11
589.6175711597
 21
131.4575163595
 31
0.0
  0
LINE
  5
41D
100
AcDbEntity
  8
S-EBENEN
100
AcDbLine
 62
9
  6
CONTINUOUS
 10
616.91913299
 20
150.4150781898
 30
0.0
 11
561.2600093294
 21
150.4150781898
 31
0.0
  0
LINE
  5
41E
100
AcDbEntity
  8
0
100
AcDbLine
 62
7
  6
CONTINUOUS
 10
611.5895711597
 20
167.9870781898
 30
0.0
 11
566.5895711597
 21
167.9870781898
 31
0.0
  0
LINE
  5
41F
100
AcDbEntity
  8
0
100
AcDbLine
 62
7
  6
CONTINUOUS
 10
616.5895711597
 20
136.7870781898
 30
0.0
 11
616.5895711597
 21
162.9870781898
 31
0.0
  0
ARC
  5
420
100
AcDbEntity
  8
0
100
AcDbCircle
 62
7
  6
CONTINUOUS
 10
225.8206864383
 20
204.5327661792
 30
0.0
 40
3.5
100
AcDbArc
 50
180.0
 51
270.0
  0
ARC
  5
421
100
AcDbEntity
  8
0
100
AcDbCircle
 62
7
  6
CONTINUOUS
 10
225.8206864383
 20
296.5327661792
 30
0.0
 40
3.5
100
AcDbArc
 50
90.0
 51
180.0
  0
ARC
  5
422
100
AcDbEntity
  8
0
100
AcDbCircle
 62
7
  6
CONTINUOUS
 10
397.8206864383
 20
296.5327661792
 30
0.0
 40
3.5
100
AcDbArc
 50
0.0
 51
90.0
  0
ARC
  5
423
100
AcDbEntity
  8
0
100
AcDbCircle
 62
7
  6
CONTINUOUS
 10
397.8206864383
 20
204.5327661792
 30
0.0
 40
3.5
100
AcDbArc
 50
270.0
 51
360.0
  0
CIRCLE
  5
424
100
AcDbEntity
  8
0
100
AcDbCircle
 62
7
  6
CONTINUOUS
 10
397.3206864383
 20
296.0327661792
 30
0.0
 40
0.85
  0
CIRCLE
  5
425
100
AcDbEntity
  8
0
100
AcDbCircle
 62
7
  6
CONTINUOUS
 10
397.3206864383
 20
205.0327661792
 30
0.0
 40
0.85
  0
CIRCLE
  5
426
100
AcDbEntity
  8
0
100
AcDbCircle
 62
7
  6
CONTINUOUS
 10
226.3206864383
 20
296.0327661792
 30
0.0
 40
0.85
  0
CIRCLE
  5
427
100
AcDbEntity
  8
0
100
AcDbCircle
 62
7
  6
CONTINUOUS
 10
226.3206864383
 20
205.0327661792
 30
0.0
 40
0.85
  0
CIRCLE
  5
428
100
AcDbEntity
  8
0
100
AcDbCircle
 62
7
  6
CONTINUOUS
 10
563.5143118173
 20
182.9780748516
 30
0.0
 40
3.5
  0
CIRCLE
  5
429
100
AcDbEntity
  8
0
100
AcDbCircle
 62
7
  6
CONTINUOUS
 10
563.5143118173
 20
182.9780748516
 30
0.0
 40
1.75
  0
CIRCLE
  5
42A
100
AcDbEntity
  8
0
100
AcDbCircle
 62
7
  6
CONTINUOUS
 10
232.5957327667
 20
164.7245788601
 30
0.0
 40
1.7
  0
CIRCLE
  5
42B
100
AcDbEntity
  8
0
100
AcDbCircle
 62
7
  6
CONTINUOUS
 10
548.5957327667
 20
164.7245788601
 30
0.0
 40
1.7
  0
CIRCLE
  5
42C
100
AcDbEntity
  8
0
100
AcDbCircle
 62
7
  6
CONTINUOUS
 10
234.0969461775
 20
98.862060468
 30
0.0
 40
1.7
  0
CIRCLE
  5
42D
100
AcDbEntity
  8
0
100
AcDbCircle
 62
7
  6
CONTINUOUS
 10
550.0969461775
 20
98.862060468
 30
0.0
 40
1.7
  0
CIRCLE
  5
42E
100
AcDbEntity
  8
0
100
AcDbCircle
 62
7
  6
CONTINUOUS
 10
369.745122519
 20
83.862060468
 30
0.0
 40
1.7
  0
ARC
  5
42F
100
AcDbEntity
  8
0
100
AcDbCircle
 62
7
  6
CONTINUOUS
 10
418.6665405955
 20
56.2123283801
 30
0.0
 40
7.0
100
AcDbArc
 50
45.0
 51
90.0
  0
ARC
  5
430
100
AcDbEntity
  8
0
100
AcDbCircle
 62
7
  6
CONTINUOUS
 10
234.6665405955
 20
56.2123283801
 30
0.0
 40
7.0
100
AcDbArc
 50
90.0
 51
135.0
  0
CIRCLE
  5
431
100
AcDbEntity
  8
0
100
AcDbCircle
 62
7
  6
CONTINUOUS
 10
250.6665405955
 20
54.2123283801
 30
0.0
 40
1.7
  0
CIRCLE
  5
432
100
AcDbEntity
  8
0
100
AcDbCircle
 62
7
  6
CONTINUOUS
 10
402.6665405955
 20
54.2123283801
 30
0.0
 40
1.7
  0
ARC
  5
433
100
AcDbEntity
  8
0
100
AcDbCircle
 62
7
  6
CONTINUOUS
 10
240.0743795785
 20
23.7906354511
 30
0.0
 40
7.0
100
AcDbArc
 50
225.0
 51
270.0
  0
ARC
  5
434
100
AcDbEntity
  8
0
100
AcDbCircle
 62
7
  6
CONTINUOUS
 10
584.0743795785
 20
23.7906354511
 30
0.0
 40
7.0
100
AcDbArc
 50
270.0
 51
315.0
  0
CIRCLE
  5
435
100
AcDbEntity
  8
0
100
AcDbCircle
 62
7
  6
CONTINUOUS
 10
568.0743795785
 20
25.7906354511
 30
0.0
 40
1.7
  0
CIRCLE
  5
436
100
AcDbEntity
  8
0
100
AcDbCircle
 62
7
  6
CONTINUOUS
 10
256.0743795785
 20
25.7906354511
 30
0.0
 40
1.7
  0
ARC
  5
437
100
AcDbEntity
  8
0
100
AcDbCircle
 62
7
  6
CONTINUOUS
 10
539.3045660546
 20
219.8806172245
 30
0.0
 40
6.0
100
AcDbArc
 50
270.0
 51
90.0
  0
ARC
  5
438
100
AcDbEntity
  8
0
100
AcDbCircle
 62
7
  6
CONTINUOUS
 10
516.3045660546
 20
219.8806172245
 30
0.0
 40
6.0
100
AcDbArc
 50
90.0
 51
270.0
  0
CIRCLE
  5
439
100
AcDbEntity
  8
0
100
AcDbCircle
 62
7
  6
CONTINUOUS
 10
436.3295660546
 20
219.4551675548
 30
0.0
 40
1.875
  0
CIRCLE
  5
43A
100
AcDbEntity
  8
0
100
AcDbCircle
 62
7
  6
CONTINUOUS
 10
453.2795660546
 20
219.4551675548
 30
0.0
 40
1.875
  0
CIRCLE
  5
43B
100
AcDbEntity
  8
0
100
AcDbCircle
 62
7
  6
CONTINUOUS
 10
504.6545660546
 20
219.8806172245
 30
0.0
 40
1.7
  0
CIRCLE
  5
43C
100
AcDbEntity
  8
0
100
AcDbCircle
 62
7
  6
CONTINUOUS
 10
550.9545660546
 20
219.8806172245
 30
0.0
 40
1.7
  0
CIRCLE
  5
43D
100
AcDbEntity
  8
0
100
AcDbCircle
 62
7
  6
CONTINUOUS
 10
414.8045660546
 20
225.8806172245
 30
0.0
 40
1.7
  0
CIRCLE
  5
43E
100
AcDbEntity
  8
0
100
AcDbCircle
 62
7
  6
CONTINUOUS
 10
570.8045660546
 20
225.8806172245
 30
0.0
 40
1.7
  0
CIRCLE
  5
43F
100
AcDbEntity
  8
0
100
AcDbCircle
 62
7
  6
CONTINUOUS
 10
613.9899474106
 20
210.2916341737
 30
0.0
 40
1.7
  0
CIRCLE
  5
440
100
AcDbEntity
  8
0
100
AcDbCircle
 62
7
  6
CONTINUOUS
 10
658.9899474106
 20
210.2916341737
 30
0.0
 40
1.7
  0
CIRCLE
  5
441
100
AcDbEntity
  8
0
100
AcDbCircle
 62
7
  6
CONTINUOUS
 10
637.3899474106
 20
223.7916341737
 30
0.0
 40
15.0
  0
CIRCLE
  5
442
100
AcDbEntity
  8
0
100
AcDbCircle
 62
7
  6
CONTINUOUS
 10
658.9899474106
 20
235.2916341737
 30
0.0
 40
1.7
  0
CIRCLE
  5
443
100
AcDbEntity
  8
0
100
AcDbCircle
 62
7
  6
CONTINUOUS
 10
613.9899474106
 20
235.2916341737
 30
0.0
 40
1.7
  0
CIRCLE
  5
444
100
AcDbEntity
  8
0
100
AcDbCircle
 62
7
  6
CONTINUOUS
 10
589.9899474106
 20
224.2916341737
 30
0.0
 40
1.7
  0
ARC
  5
445
100
AcDbEntity
  8
0
100
AcDbCircle
 62
7
  6
CONTINUOUS
 10
691.4899474106
 20
218.2916341737
 30
0.0
 40
6.0
100
AcDbArc
 50
90.0
 51
270.0
  0
CIRCLE
  5
446
100
AcDbEntity
  8
0
100
AcDbCircle
 62
7
  6
CONTINUOUS
 10
679.8399474106
 20
218.2916341737
 30
0.0
 40
1.7
  0
ARC
  5
447
100
AcDbEntity
  8
0
100
AcDbCircle
 62
7
  6
CONTINUOUS
 10
739.8161607405
 20
212.8429236425
 30
0.0
 40
4.0
100
AcDbArc
 50
35.6590876961
 51
144.3409123039
  0
ARC
  5
448
100
AcDbEntity
  8
0
100
AcDbCircle
 62
7
  6
CONTINUOUS
 10
739.8161607405
 20
212.8429236425
 30
0.0
 40
4.0
100
AcDbArc
 50
215.6590876961
 51
324.3409123039
  0
ARC
  5
449
100
AcDbEntity
  8
0
100
AcDbCircle
 62
7
  6
CONTINUOUS
 10
714.4899474106
 20
218.2916341737
 30
0.0
 40
6.0
100
AcDbArc
 50
270.0
 51
90.0
  0
CIRCLE
  5
44A
100
AcDbEntity
  8
0
100
AcDbCircle
 62
7
  6
CONTINUOUS
 10
726.1399474106
 20
218.2916341737
 30
0.0
 40
1.7
  0
CIRCLE
  5
44B
100
AcDbEntity
  8
0
100
AcDbCircle
 62
7
  6
CONTINUOUS
 10
745.9899474106
 20
224.2916341737
 30
0.0
 40
1.7
  0
ARC
  5
44C
100
AcDbEntity
  8
0
100
AcDbCircle
 62
7
  6
CONTINUOUS
 10
619.4477879785
 20
55.4445021043
 30
0.0
 40
7.0
100
AcDbArc
 50
45.0
 51
90.0
  0
ARC
  5
44D
100
AcDbEntity
  8
0
100
AcDbCircle
 62
7
  6
CONTINUOUS
 10
435.4477879785
 20
55.4445021043
 30
0.0
 40
7.0
100
AcDbArc
 50
90.0
 51
135.0
  0
CIRCLE
  5
44E
100
AcDbEntity
  8
0
100
AcDbCircle
 62
7
  6
CONTINUOUS
 10
451.4477879785
 20
53.4445021043
 30
0.0
 40
1.7
  0
CIRCLE
  5
44F
100
AcDbEntity
  8
0
100
AcDbCircle
 62
7
  6
CONTINUOUS
 10
603.4477879785
 20
53.4445021043
 30
0.0
 40
1.7
  0
ARC
  5
450
100
AcDbEntity
  8
0
100
AcDbCircle
 62
7
  6
CONTINUOUS
 10
243.5187511753
 20
-1.03364162
 30
0.0
 40
7.0
100
AcDbArc
 50
225.0
 51
270.0
  0
ARC
  5
451
100
AcDbEntity
  8
0
100
AcDbCircle
 62
7
  6
CONTINUOUS
 10
587.5187511753
 20
-1.03364162
 30
0.0
 40
7.0
100
AcDbArc
 50
270.0
 51
315.0
  0
CIRCLE
  5
452
100
AcDbEntity
  8
0
100
AcDbCircle
 62
7
  6
CONTINUOUS
 10
571.5187511753
 20
0.96635838
 30
0.0
 40
1.7
  0
CIRCLE
  5
453
100
AcDbEntity
  8
0
100
AcDbCircle
 62
7
  6
CONTINUOUS
 10
259.5187511753
 20
0.96635838
 30
0.0
 40
1.7
  0
ARC
  5
454
100
AcDbEntity
  8
0
100
AcDbCircle
 62
7
  6
CONTINUOUS
 10
611.5895711597
 20
136.7870781898
 30
0.0
 40
5.0
100
AcDbArc
 50
270.0
 51
360.0
  0
ARC
  5
455
100
AcDbEntity
  8
0
100
AcDbCircle
 62
7
  6
CONTINUOUS
 10
611.5895711597
 20
162.9870781898
 30
0.0
 40
5.0
100
AcDbArc
 50
0.0
 51
90.0
  0
ARC
  5
456
100
AcDbEntity
  8
0
100
AcDbCircle
 62
7
  6
CONTINUOUS
 10
566.5895711597
 20
162.9870781898
 30
0.0
 40
5.0
100
AcDbArc
 50
90.0
 51
180.0
  0
ARC
  5
457
100
AcDbEntity
  8
0
100
AcDbCircle
 62
7
  6
CONTINUOUS
 10
566.5895711597
 20
136.7870781898
 30
0.0
 40
5.0
100
AcDbArc
 50
180.0
 51
270.0
  0
CIRCLE
  5
458
100
AcDbEntity
  8
_ACHSEN
100
AcDbCircle
 62
7
  6
CONTINUOUS
 10
611.5895711597
 20
137.3870781898
 30
0.0
 40
1.7
  0
CIRCLE
  5
459
100
AcDbEntity
  8
_ACHSEN
100
AcDbCircle
 62
7
  6
CONTINUOUS
 10
566.5895711597
 20
137.3870781898
 30
0.0
 40
1.7
  0
CIRCLE
  5
45A
100
AcDbEntity
  8
_ACHSEN
100
AcDbCircle
 62
7
  6
CONTINUOUS
 10
566.5895711597
 20
162.3870781898
 30
0.0
 40
1.7
  0
CIRCLE
  5
45B
100
AcDbEntity
  8
_ACHSEN
100
AcDbCircle
 62
7
  6
CONTINUOUS
 10
611.5895711597
 20
162.3870781898
 30
0.0
 40
1.7
  0
CIRCLE
  5
45C
100
AcDbEntity
  8
_ACHSEN
100
AcDbCircle
 62
7
  6
CONTINUOUS
 10
602.1895711597
 20
139.6370781898
 30
0.0
 40
1.7
  0
CIRCLE
  5
45D
100
AcDbEntity
  8
_ACHSEN
100
AcDbCircle
 62
7
  6
CONTINUOUS
 10
575.9895711597
 20
139.6370781898
 30
0.0
 40
1.7
  0
CIRCLE
  5
45E
100
AcDbEntity
  8
_ACHSEN
100
AcDbCircle
 62
7
  6
CONTINUOUS
 10
575.9895711597
 20
160.1370781898
 30
0.0
 40
1.7
  0
CIRCLE
  5
45F
100
AcDbEntity
  8
_ACHSEN
100
AcDbCircle
 62
7
  6
CONTINUOUS
 10
602.1895711597
 20
160.1370781898
 30
0.0
 40
1.7
  0
ENDSEC
  0
SECTION
  2
OBJECTS
  0
DICTIONARY
  5
C
100
AcDbDictionary
280
0
281
1
  3
ACAD_GROUP
350
D
  3
ACAD_MLINESTYLE
350
17
  3
ACAD_LAYOUT
350
1A
  3
ACAD_PLOTSETTINGS
350
19
  3
ACAD_PLOTSTYLENAME
350
E
  0
DICTIONARY
  5
D
102
{ACAD_REACTORS
330
C
102
}
100
AcDbDictionary
280
0
281
1
  0
ACDBDICTIONARYWDFLT
  5
E
102
{ACAD_REACTORS
330
C
102
}
100
AcDbDictionary
281
1
  3
Normal
350
F
100
AcDbDictionaryWithDefault
340
F
  0
DICTIONARY
  5
17
102
{ACAD_REACTORS
330
C
102
}
100
AcDbDictionary
280
0
281
1
  3
Standard
350
18
  0
DICTIONARY
  5
19
102
{ACAD_REACTORS
330
C
102
}
100
AcDbDictionary
281
1
  0
DICTIONARY
  5
1A
102
{ACAD_REACTORS
330
C
102
}
100
AcDbDictionary
281
1
  3
Model
350
460
  3
Layout1
350
461
  0
ACDBPLACEHOLDER
  5
F
102
{ACAD_REACTORS
330
E
102
}
  0
MLINESTYLE
  5
18
102
{ACAD_REACTORS
330
17
102
}
100
AcDbMlineStyle
  2
STANDARD
 70
0
  3

 62
256
 51
90.0
 52
90.0
 71
2
 49
0.5
 62
256
  6
BYLAYER
 49
-0.5
 62
256
  6
BYLAYER
  0
LAYOUT
  5
460
102
{ACAD_REACTORS
330
1A
102
}
100
AcDbPlotSettings
  1

  2
none_device
  4

  6

 40
0.0
 41
0.0
 42
0.0
 43
0.0
 44
210.0
 45
297.0
 46
0.0
 47
0.0
 48
0.0
 49
0.0
140
0.0
141
0.0
142
1.0
143
1.0
 70
1024
 72
1
 73
0
 74
0
  7

 75
0
147
1.0
148
0.0
149
0.0
100
AcDbLayout
  1
Model
 70
0
 71
0
 10
0.0
 20
0.0
 11
210.0
 21
297.0
 12
0.0
 22
0.0
 32
0.0
 14
0.0
 24
0.0
 34
0.0
 15
0.0
 25
0.0
 35
0.0
146
0.0
 13
0.0
 23
0.0
 33
0.0
 16
1.0
 26
0.0
 36
0.0
 17
0.0
 27
1.0
 37
0.0
 76
0
330
20F
345
0
346
0
  0
LAYOUT
  5
461
102
{ACAD_REACTORS
330
1A
102
}
100
AcDbPlotSettings
  1

  2
none_device
  4

  6

 40
0.0
 41
0.0
 42
0.0
 43
0.0
 44
210.0
 45
297.0
 46
0.0
 47
0.0
 48
0.0
 49
0.0
140
0.0
141
0.0
142
1.0
143
1.0
 70
0
 72
1
 73
0
 74
0
  7

 75
0
147
1.0
148
0.0
149
0.0
100
AcDbLayout
  1
Layout1
 70
0
 71
1
 10
0.0
 20
0.0
 11
210.0
 21
297.0
 12
0.0
 22
0.0
 32
0.0
 14
0.0
 24
0.0
 34
0.0
 15
0.0
 25
0.0
 35
0.0
146
0.0
 13
0.0
 23
0.0
 33
0.0
 16
1.0
 26
0.0
 36
0.0
 17
0.0
 27
1.0
 37
0.0
 76
0
330
210
345
0
346
0
  0
ENDSEC
  0
EOF
